<svg xmlns="http://www.w3.org/2000/svg" width="20.076" height="15.374" viewBox="0 0 20.076 15.374">
    <g fill="none" stroke="currentColor">
        <path d="M9.717 2.193h.654a.736.736 0 00.077.011 7.462 7.462 0 011.262.167 7.687 7.687 0 012.948 1.347 10.583 10.583 0 013.207 3.9.143.143 0 010 .139 10.872 10.872 0 01-2.352 3.194 8.189 8.189 0 01-3.044 1.842 7.7 7.7 0 01-3.01.363 7.549 7.549 0 01-1.977-.41 8.093 8.093 0 01-2.5-1.435A10.74 10.74 0 012.524 8.33c-.117-.206-.221-.42-.331-.63v-.026a.15.15 0 00.014-.02 10.823 10.823 0 011.67-2.512 8.9 8.9 0 012.91-2.231 7.528 7.528 0 012.645-.694l.285-.024z"/>
        <path  d="M12.65 7.686a2.606 2.606 0 11-2.609-2.6 2.607 2.607 0 012.609 2.6z"/>
    </g>
</svg>
