<svg xmlns="http://www.w3.org/2000/svg" class="w-6 h-6" width="13.286" height="13.29" viewBox="0 0 13.286 13.29">

        <g fill="#fff">
            <path d="M9.758 13.291H3.533a.892.892 0 0 0-.116-.03 3.867 3.867 0 0 1-3.41-3.822q-.013-2.794 0-5.587A3.863 3.863 0 0 1 3.836.008q2.81-.017 5.62 0a3.845 3.845 0 0 1 3.623 2.641c.095.287.139.59.207.886v6.227c-.011.049-.025.1-.033.148a3.815 3.815 0 0 1-2.592 3.167 7.252 7.252 0 0 1-.9.214m-3.12-3.322a3.321 3.321 0 1 0-3.316-3.326 3.326 3.326 0 0 0 3.316 3.326m4.431-7.192a.553.553 0 1 0-.552.549.558.558 0 0 0 .552-.549" data-name="Path 870" transform="translate(0 -.001)"/>
            <path d="M130.034 127.852a2.214 2.214 0 1 1-2.221 2.2 2.216 2.216 0 0 1 2.221-2.2" data-name="Path 871" transform="translate(-123.382 -123.419)"/>
        </g>

</svg>
