<svg xmlns="http://www.w3.org/2000/svg" viewBox="0 0 407.5 258.7">
<g fill="currentColor">
<path d="M104.7 135.8h195.8v2H104.7z"/>
<path d="M148.1 0v107.7h107.7V0H148.1zm91.3 31.9c-2.6.7-4.2 1.3-4.9 1.8-.4.3-.8.9-1.2 1.7-.6 1.3-3.3 8.6-8 22-.1.3-2.6 7.7-7.5 22h-2.4L207.1 56c-.8-2.1-1.8-4.7-3-7.9-3 7.8-6.8 18.3-11.4 31.3h-2.5c-3.7-10.8-7.8-22.3-12.2-34.2-2.2-5.9-3.6-9.4-4.2-10.4-.3-.5-.7-1-1.2-1.3-.8-.5-2.4-1-5-1.6v-2c5.3.3 8.6.4 10.1.4 1.9 0 5-.1 9.3-.4v2c-2.7.7-4.3 1.2-4.8 1.6-.5.4-.7.8-.7 1.3s.5 2.1 1.4 5c4.2 12.9 7.5 22.3 9.9 28.4l9.4-25.2c-1.5-4.2-2.6-6.7-3.1-7.7-.5-.9-1.1-1.6-1.7-1.9-.6-.3-2.2-.9-4.9-1.5v-2c4.2.3 7.5.4 9.8.4 2.4 0 5.6-.1 9.5-.4v2l-1.2.3c-1.9.4-3.1.8-3.7 1.2-.3.3-.5.7-.5 1.3 0 .3 0 .5.1.7.1.6 1.4 4.4 3.8 11.3l7.3 20.9c1.6-4.3 3.5-9.9 5.7-16.6l5.1-15.6c.1-.3.1-.6.1-.9 0-.4-.1-.7-.4-.9-.3-.2-1.9-.8-5.1-1.8v-2c4.2.3 7 .4 8.3.4 1.5 0 4.2-.1 7.8-.4v2.1z"/>
<path d="M47.5 186v1.7l-4.6 1.1c-.5.1-.8.3-1.1.5-.2.2-.4.6-.5 1-.2.9-.2 3.2-.2 6.8 0 2.2.1 5.1.2 8.9-.9.1-2.8.5-5.7 1.2-3.8.8-6.3 1.3-7.3 1.5-2 .2-4 .4-6.2.4-7.1 0-12.6-1.9-16.4-5.6-3.8-3.9-5.7-9-5.7-15.5 0-7 2.2-12.8 6.7-17.2 4.5-4.4 10.4-6.6 17.8-6.6 1.9 0 3.6.1 5.3.3.4 0 3.8.7 10.4 1.8v2.7c0 2.7.1 5.8.4 9.2h-2.3c-.9-3.5-1.8-5.7-2.6-6.8-.8-1.1-2.1-2-4-2.7-2.4-.9-5-1.4-7.9-1.4-6.3 0-11 2.4-14.1 7.1-2.2 3.3-3.3 7.4-3.3 12.3 0 6.2 1.7 10.9 5.2 14.1 3.5 3.2 7.9 4.8 13.2 4.8 3.4 0 6.9-.7 10.6-2.1.1-2.2.1-5.4.1-9.6 0-2.3-.1-3.6-.2-4-.1-.4-.4-.7-.7-.9-.5-.3-1.8-.7-4.1-1.1l-1.2-.3V186l10.4.2c2.3 0 4.9-.1 7.8-.2zM52.7 187.6l-2-.2c.4-2.1.7-4.2.8-6.3 3.9-1.8 7.5-2.7 10.6-2.7 1.4 0 2.6.2 3.7.6 1.1.4 2 .9 2.6 1.6.6.7 1.1 1.5 1.5 2.5.3 1 .5 2.5.5 4.6l-.3 12.5c0 1.7.2 2.8.6 3.3.4.5.9.8 1.5.8.7 0 1.9-.5 3.4-1.6l.9 1.2c-2.8 2.5-4.4 3.9-4.7 4.1-.6.3-1.3.5-2.1.5-1.3 0-2.3-.3-3-1-.7-.7-1.2-1.8-1.4-3.3-2.4 1.9-4.2 3.1-5.4 3.6-1.2.5-2.4.7-3.8.7-2.2 0-4-.7-5.4-2-1.4-1.4-2.1-3.1-2.1-5.2 0-1.3.2-2.5.7-3.5.5-1 1.2-2 2.1-2.7.7-.6 1.9-1.3 3.6-2.1 3.9-1.9 7.4-3.5 10.3-4.6-.1-2.8-.6-4.7-1.4-5.7-.8-.9-2.1-1.4-3.9-1.4-1.7 0-3.1.5-4.2 1.5-1.2 1-2.2 2.6-3.1 4.8zm12.7 3.3c-5.3 2.4-8.5 4.1-9.6 5.2-1.1 1.1-1.7 2.4-1.7 3.9s.4 2.7 1.2 3.6c.8.9 1.8 1.4 2.9 1.4 1.2 0 2.4-.4 3.7-1.1 1.3-.8 2.2-1.6 2.7-2.6.4-.9.7-2.7.7-5.2v-5.2zM77.2 184v-1.7c3.8-.9 7-2.2 9.6-3.9l.8.6c-.3 2-.5 4.1-.6 6.4 2.4-3 4.1-4.8 5.1-5.5 1-.7 2.1-1 3.4-1 .9 0 1.8.2 2.9.6-.4 2.1-.8 4.2-1.1 6.3h-1.5c-.2-1-.5-1.7-.9-2.1-.4-.4-.9-.7-1.4-.7-.8 0-1.7.4-2.6 1.1-1.4 1.1-2.4 2.4-3 3.8-.6 1.4-.9 3.5-.9 6.1 0 4.7.1 7.8.4 9.4.1.6.4 1.1.8 1.4.5.3 1.9.8 4.3 1.3v1.7c-2.5-.2-4.8-.3-6.9-.3-1.7 0-4.6.1-8.5.3v-1.7c2.8-.7 4.3-1.2 4.7-1.6.4-.4.5-1.4.5-3l.1-6.6c0-6.4-.1-9.9-.2-10.4-.2-.8-.8-1.2-1.7-1.2-.5 0-1.4.1-2.6.3-.1.4-.4.4-.7.4zM123.6 172.6H122c-.3-2.2-1.1-3.8-2.2-4.8s-2.5-1.5-4.2-1.5c-1.6 0-2.9.5-4 1.4-1.1.9-1.8 2-2.2 3.4-.4 1.4-.6 3.6-.6 6.6v1.9h9.6c2 0 3.6-.1 4.7-.3.7-.1 1.8-.4 3-.8l1 .6c-.4 3.7-.6 9-.6 15.9 0 4.8.1 7.8.4 8.9.1.6.3 1 .7 1.2.3.2 1.7.7 4 1.3v1.7c-3-.2-5.4-.3-7.2-.3-1.9 0-4.4.1-7.5.3v-1.7c2.3-.6 3.6-1 4-1.2.4-.2.6-.6.7-1 .2-.9.3-3.3.3-7.1 0-5.3 0-8.8-.1-10.3-.1-2.1-.2-3.4-.5-3.8-.1-.2-.3-.4-.6-.5-.3-.1-1.2-.1-2.7-.1h-9.2V197c0 3.2.1 5.4.2 6.8.1.6.3 1 .5 1.2.3.2 1 .5 2.4.8l2.4.6v1.7c-2.8-.2-5.3-.3-7.4-.3-2.2 0-4.7.1-7.6.3v-1.7l3.3-.9c.3-.1.5-.2.7-.4.1-.1.2-.3.3-.5.2-.8.3-2.7.4-5.7.1-5.5.1-9.9.1-13.1v-3.3c-1.5 0-3 .1-4.4.3v-1.5c1.5-.6 3-1.3 4.4-2.2-.1-1.2-.1-2.1-.1-2.8 0-2.4.4-4.3 1.3-5.9 1.2-2 2.8-3.7 5-4.9 2.2-1.2 4.5-1.8 6.8-1.8 2.6 0 5.5.9 8.7 2.6-1 2.2-1.7 4.3-2.2 6.3zM159.1 200.8l1.2 1.8-6 4.5c-.8.6-1.7 1-2.6 1.2-1.3.4-2.6.6-4 .6-3.3 0-6.1-1.3-8.4-4-2.3-2.6-3.5-6.2-3.5-10.7 0-4.8 1.4-8.7 4.2-11.7 2.8-2.9 6.2-4.4 10.3-4.4 3.1 0 5.6.9 7.3 2.6 1.7 1.7 2.6 4.4 2.6 7.9-.8.5-1.6 1.1-2.3 1.8h-2.7c-5.4 0-10 .1-14 .2 0 4.5.7 7.9 2.3 10.3 1.6 2.3 3.6 3.5 6.2 3.5 1.3 0 2.7-.3 4.1-.8 1.4-.5 3.2-1.4 5.3-2.8zm-4.4-13.3c-.1-2-.6-3.5-1.3-4.5-1.1-1.5-2.7-2.3-4.6-2.3-1.7 0-3.1.6-4.4 1.7-1.3 1.1-2.3 3-2.9 5.6h1.7c3.3.1 7.1-.1 11.5-.5zM160.6 169.3v-1.7c3.6-1.2 6.8-2.5 9.7-4l.8.5c-.5 3.8-.7 10.8-.7 21.2 0 10.4 0 16.2.1 17.3.1 1.1.3 1.8.7 2.2.4.4 1.8.9 4.4 1.6v1.7c-3.2-.2-5.8-.3-7.6-.3-1.9 0-4.4.1-7.4.3v-1.7c2.7-.8 4.2-1.4 4.5-1.6.2-.2.4-.8.5-1.8.1-1.2.1-6.8.1-16.7l-.1-14.4v-.4c0-1.1-.2-1.8-.5-2.2-.3-.3-.8-.5-1.4-.5-.5.1-1.6.2-3.1.5zM191.5 169.3v-1.7c2.2-.6 3.8-1.1 4.8-1.5 1-.4 2.7-1.2 5-2.4l.8.6c-.4 4.7-.7 13.4-.7 26.2 0 7.1.1 11 .3 11.8.2.8.8 1.2 1.8 1.2.6 0 1.7-.1 3.2-.4v1.6c-4.2 1.3-7.5 2.6-9.8 3.9l-.8-.6c.2-1.5.4-3 .5-4.5-2.5 2.3-4.4 3.7-5.6 4.3-1.2.6-2.6.8-4.2.8-3.1 0-5.6-1.2-7.7-3.5-2-2.3-3-5.6-3-9.8 0-2.9.5-5.4 1.5-7.5.7-1.6 1.8-3.1 3.2-4.6 1.4-1.4 3-2.6 4.7-3.5 1.7-.9 3.5-1.3 5.3-1.3.8 0 1.7.1 2.7.3 1 .2 2.1.5 3.2.9 0-1 .1-1.6.1-1.8 0-4.7-.1-7.4-.3-7.9-.2-.7-.9-1.1-2-1.1-.4 0-1 .1-1.9.2-.3.2-.6.2-1.1.3zm5.2 23.4c0-4-.1-6.3-.3-6.9-.3-1.2-1.1-2.2-2.4-3.1-1.2-.8-2.8-1.3-4.6-1.3-2.3 0-4.3 1-5.9 2.9-1.6 1.9-2.4 4.7-2.4 8.4 0 3.8.8 6.7 2.5 8.7 1.6 2 3.6 3 5.9 3 1.5 0 2.9-.4 4.1-1.3 1.2-.9 2.1-1.9 2.5-3.1.4-1.3.6-3.7.6-7.3zM241.4 209h-2.2c-3.3-9.6-6.9-19.7-10.8-30.3-1.9-5.2-3.1-8.3-3.7-9.2-.3-.5-.6-.8-1.1-1.2-.7-.4-2.1-.9-4.5-1.4v-1.8c4.7.2 7.6.3 8.9.3 1.7 0 4.5-.1 8.3-.3v1.8c-2.4.6-3.8 1.1-4.2 1.4-.4.3-.6.7-.6 1.2 0 .4.4 1.9 1.3 4.4 3.8 11.4 6.7 19.8 8.8 25.2l8.3-22.3c-1.4-3.7-2.3-6-2.7-6.8-.5-.8-1-1.4-1.5-1.7-.5-.3-1.9-.8-4.3-1.4v-1.8c3.8.2 6.7.3 8.7.3 2.2 0 5-.1 8.4-.3v1.8l-1.1.3c-1.7.3-2.8.7-3.2 1.1-.3.3-.5.7-.5 1.2 0 .2 0 .4.1.6.1.5 1.2 3.9 3.4 10l6.5 18.5c1.4-3.8 3.1-8.7 5-14.7l4.5-13.8c.1-.3.1-.5.1-.8 0-.4-.1-.6-.3-.8-.2-.2-1.7-.7-4.5-1.6v-1.8c3.8.2 6.2.3 7.4.3 1.4 0 3.7-.1 6.9-.3v1.8c-2.3.6-3.7 1.1-4.3 1.6-.4.3-.7.8-1 1.5-.5 1.2-2.9 7.6-7.1 19.5-.1.3-2.3 6.8-6.7 19.5h-2.1l-7.4-20.7c-.7-1.9-1.6-4.2-2.7-7-2.7 6.9-6 16.2-10.1 27.7zM302 200.8l1.2 1.8-6 4.5c-.8.6-1.7 1-2.6 1.2-1.3.4-2.6.6-4 .6-3.3 0-6.1-1.3-8.4-4-2.3-2.6-3.5-6.2-3.5-10.7 0-4.8 1.4-8.7 4.2-11.7 2.8-2.9 6.2-4.4 10.3-4.4 3.1 0 5.6.9 7.3 2.6 1.7 1.7 2.6 4.4 2.6 7.9-.8.5-1.6 1.1-2.3 1.8h-2.7c-5.4 0-10 .1-14 .2 0 4.5.7 7.9 2.3 10.3 1.6 2.3 3.6 3.5 6.2 3.5 1.3 0 2.7-.3 4.1-.8 1.4-.5 3.2-1.4 5.3-2.8zm-4.4-13.3c-.1-2-.6-3.5-1.3-4.5-1.1-1.5-2.7-2.3-4.6-2.3-1.7 0-3.1.6-4.4 1.7-1.3 1.1-2.3 3-2.9 5.6h1.7c3.3.1 7.1-.1 11.5-.5zM323.2 186.7l-2.1-.2c-.1-1.8-.8-3.2-1.9-4.2-1.1-1-2.5-1.5-4.2-1.5-1.5 0-2.6.4-3.5 1.2-.9.8-1.3 1.7-1.3 2.7 0 .9.3 1.7 1 2.5.9 1 2.9 2.3 6 3.8s5.1 2.9 6.2 4.3c1 1.4 1.6 2.9 1.6 4.6 0 2.5-1 4.6-3 6.4-2 1.8-4.7 2.7-8.1 2.7-2.5 0-5.2-.6-8.2-1.7.3-2.8.5-5.4.5-7.8h2.1c.6 2.4 1.5 4.1 2.7 5.1 1.2 1 2.7 1.5 4.4 1.5 1.6 0 2.8-.4 3.7-1.2.9-.8 1.3-1.8 1.3-3s-.4-2.3-1.3-3.3-2.8-2.3-5.8-3.8-5-2.8-6-4.1c-1-1.2-1.5-2.6-1.5-4.1 0-2.2 1-4.1 3-5.9 2-1.7 4.6-2.6 7.9-2.6 2.3 0 4.7.5 7.4 1.6-.4 1.7-.7 4-.9 7zM334.5 171.8h1.8l-.7 7.7 8.4-.1.2.5c-.5.8-1 1.7-1.4 2.6-2.4-.1-4.8-.2-7.2-.2l-.3 15.6v.2c0 2.4.3 4.1.8 5.2.5 1.1 1.4 1.6 2.7 1.6 1.1 0 2.5-.5 4.2-1.4l.9 1.7c-2.2 1.4-3.9 2.3-5 2.7-1.2.4-2.1.7-3 .7-1.3 0-2.5-.3-3.4-1-.9-.7-1.5-1.7-1.8-2.9-.2-.7-.3-2.8-.3-6.3 0-3.8.1-9.1.3-16-1.4 0-2.9.1-4.4.2V181c1.7-.8 3.2-1.8 4.4-3.1 1.3-1.5 2.6-3.5 3.8-6.1zM344.4 194c0-4.9 1.4-8.7 4.2-11.6 2.8-2.8 6.4-4.3 10.9-4.3 4.3 0 7.6 1.3 10.1 3.8 2.5 2.6 3.7 6.1 3.7 10.7 0 5-1.4 8.9-4.2 11.8-2.8 2.9-6.4 4.3-10.9 4.3-4.3 0-7.7-1.3-10.2-3.9-2.4-2.4-3.6-6.1-3.6-10.8zm5.8-2.6c0 3.3.2 5.8.6 7.3.7 2.5 1.7 4.5 3.2 5.7 1.4 1.3 3.1 1.9 5 1.9 2.5 0 4.5-.9 6.1-2.8 1.6-1.9 2.4-4.9 2.4-9.1 0-4.7-.9-8.1-2.7-10.4-1.8-2.3-3.9-3.4-6.4-3.4-2.4 0-4.4.9-6 2.6-1.4 1.9-2.2 4.5-2.2 8.2zM374.6 184v-1.8c3.6-.8 6.9-2.1 9.9-3.8l.8.5c-.3 1.7-.5 3.5-.5 5.3l3.8-3.8c.6-.6 1.4-1 2.3-1.3 1.2-.4 2.4-.7 3.7-.7 2.9 0 5.1 1 6.5 2.9 1 1.3 1.5 3.5 1.5 6.6l-.1 7.3c0 4.9.1 7.8.2 8.7.1.6.3 1 .6 1.3.3.2 1.2.6 2.9.9.3.1.8.2 1.4.3v1.7c-2.4-.2-4.5-.3-6.4-.3-1.6 0-4.4.1-8.3.3v-1.7c2.4-.7 3.7-1.2 4-1.4.3-.2.5-.6.5-1.2.2-2 .3-5.1.3-9.2 0-4.4-.1-7.1-.3-8-.3-1.3-.9-2.4-1.8-3.1-.9-.7-2-1.1-3.3-1.1-1.3 0-2.6.4-3.9 1.2-1.3.8-2.2 1.8-2.9 3.1-.6 1.3-.9 3.2-.9 5.8 0 7.3.2 11.2.5 11.8.3.6 1.5 1.2 3.5 1.7.3.1.6.2 1.2.3v1.7c-2.7-.2-5-.3-6.8-.3-1.8 0-4.4.1-7.9.3v-1.7c2.4-.6 3.8-1 4.1-1.2.2-.2.3-.6.4-1.3.2-1.9.3-4.5.3-7.8 0-6.8-.1-10.6-.2-11.1-.2-.8-.8-1.3-1.8-1.3-.4 0-1.1.1-2.1.2-.3.1-.7.2-1.2.2z"/>
<path d="M115 258.3h-2.7v-21.7h13.3v2.4H115v6.8h8.7v2.2H115v10.3zM136.6 258.7c-2.8 0-5-1.1-6.5-3.2-1.6-2.2-2.3-4.8-2.3-8 0-3.3.8-6 2.4-8.1 1.6-2.1 3.8-3.2 6.5-3.2s4.8 1 6.4 3.2c1.6 2.1 2.4 4.8 2.4 7.9 0 3.1-.8 5.7-2.4 8-1.5 2.3-3.7 3.4-6.5 3.4zm.1-2.2c1.9 0 3.4-.9 4.4-2.6 1.1-1.7 1.6-3.9 1.6-6.7 0-2.8-.6-5-1.7-6.5-1.1-1.6-2.6-2.3-4.4-2.3-1.9 0-3.3.8-4.4 2.5-1.1 1.7-1.6 3.9-1.6 6.6 0 2.7.6 4.8 1.7 6.5 1.1 1.7 2.5 2.5 4.4 2.5zM162.3 236.6h2.3v14.1c0 2.8-.7 4.9-2.1 6.1-1.4 1.2-3.2 1.9-5.5 1.9-2.5 0-4.4-.6-5.6-1.9-1.2-1.3-1.8-3.3-1.8-6.1v-14.1h2.7v14.2c0 1.7.2 2.9.6 3.6.4.7 1 1.2 1.8 1.5.8.3 1.6.5 2.5.5 1.7 0 2.9-.4 3.8-1.3s1.3-2.3 1.3-4.3v-14.2zM185.9 258.3h-2.6l-11.2-18.9V258.3H170v-21.7h3.4l10.5 17.7v-1.5-16.2h2.1v21.7zM191.7 258.3v-21.7h7.3c3.1 0 5.4 1 7.1 3.1 1.7 2.1 2.6 4.6 2.6 7.6 0 3.1-.8 5.6-2.5 7.7-1.7 2.1-3.8 3.1-6.3 3.1h-8.2zm2.7-2.3h4.4c2.3 0 4.1-.8 5.3-2.4 1.2-1.6 1.8-3.7 1.8-6.4 0-2.1-.6-4.1-1.7-5.8-1.1-1.7-2.9-2.6-5.4-2.6h-4.4V256zM227.6 258.3h-2.8l-2.2-6.3h-8l-1.9 6.3h-2.3l7-21.7h3.1l7.1 21.7zm-5.5-8.4l-3.4-10.4-3.3 10.4h6.7zM237.3 258.3h-2.7V239h-6.2v-2.4h15.1v2.4h-6.2v19.3zM249.6 258.3h-2.7v-21.7h2.7v21.7zM262.8 258.7c-2.8 0-5-1.1-6.5-3.2-1.6-2.2-2.3-4.8-2.3-8 0-3.3.8-6 2.4-8.1 1.6-2.1 3.8-3.2 6.5-3.2s4.8 1 6.4 3.2c1.6 2.1 2.4 4.8 2.4 7.9 0 3.1-.8 5.7-2.4 8-1.5 2.3-3.7 3.4-6.5 3.4zm0-2.2c1.9 0 3.4-.9 4.4-2.6 1.1-1.7 1.6-3.9 1.6-6.7 0-2.8-.6-5-1.7-6.5-1.1-1.6-2.6-2.3-4.4-2.3-1.9 0-3.3.8-4.4 2.5-1.1 1.7-1.6 3.9-1.6 6.6 0 2.7.6 4.8 1.7 6.5 1.1 1.7 2.6 2.5 4.4 2.5zM292.1 258.3h-2.6l-11.2-18.9V258.3h-2.2v-21.7h3.4l10.5 17.7v-1.5-16.2h2.1v21.7z"/>
</g>
</svg>