<svg xmlns="http://www.w3.org/2000/svg" viewBox="0 0 1010 386.6">
    <g fill="currentColor">
        <path d="M346.3 292.4h57.5v11.8h-44.3v27.9h33.7v11.6h-33.7v40.1h-13.2v-91.4zm67.3 0h13.2v53.5c0 4.2.4 8 1.1 11.2.7 3.4 2 6.3 3.8 8.9 1.8 2.5 4.2 4.4 7.1 5.6 2.9 1.3 6.7 2 11.2 2s8.2-.7 11.2-2c2.9-1.3 5.4-3.3 7.1-5.6 1.8-2.5 3.1-5.4 3.8-8.9.7-3.4 1.1-7.3 1.1-11.2v-53.5h13.2v56.8c0 5.3-.7 10.2-2.2 14.7s-3.6 8.5-6.7 11.8c-2.9 3.3-6.7 6-11.2 8s-10 2.9-16.1 2.9c-6.2 0-11.6-.9-16.1-2.9s-8.3-4.5-11.4-8c-3.1-3.3-5.3-7.3-6.7-11.8-1.5-4.5-2.2-9.4-2.2-14.7v-56.8h-.2zm86.9 0h13.2l50.1 71.5v-71.5h12.9V384h-13.2l-50.1-71.7V384h-12.9v-91.6zm89.6 0h30.7c7.3 0 14 .9 20 2.7 6.2 1.8 11.2 4.5 15.8 8.3 4.4 3.8 7.8 8.5 10.3 14.3 2.5 5.8 3.6 12.7 3.6 20.7 0 7.6-1.3 14.3-3.6 20.1-2.5 5.8-6 10.5-10.3 14.3-4.4 3.8-9.6 6.5-15.8 8.5-6.2 1.8-12.9 2.7-20.1 2.7h-30.5v-91.6zm30.1 79.8c11.4 0 20.3-2.9 26.7-8.5 6.3-5.6 9.6-14 9.6-25 0-11.2-3.1-19.8-9.3-25.6-6.2-6-15.2-8.9-27.4-8.9h-16.7v68h17.1zM281 174.1c-3.6 0-11.2 2-15.4 6.2 1.6-18-5.1-31.2-17.4-35.7-7.6-2.5-15.8-2-23 1.1l-10-24.1c9.3-22.5 25.2-49.9 25.2-72.4 0-17.4-8.7-30.1-25.6-30.1-10.2 0-21.6 8.3-30.1 19.2C172.9 12.2 160.7 0 147.3 0c-21 0-29.6 21-29.6 38.8 0 14.9 4 39.4 20 74.2-10.7 24.1-18.9 43.9-28.7 74.7C96.3 174.5 75.3 161 48.6 161c-13.8 0-25.6 3.6-34.8 9.8C5.1 177 0 185.2 0 193.9c0 12.7 8.7 21.4 21.9 25 23 6.2 33.2 24.5 41.9 60.8 15.8 65.5 56.8 104.8 119.5 104.8 66.4 0 120.6-54.2 120.6-120.6 0-9.6-1.1-17.4-2.5-26.1 2-5.1 3.6-10.7 4.5-15.2 6.1-28.7-4.6-48.5-24.9-48.5zm-38.1-15.4c10.7 4.9 11.4 27.2.7 53.7-8.7 25.6-21.2 41.2-32.8 41.4-9.3 0-16.9-6.5-16.9-23.9.2-32.9 27-81.3 49-71.2zM132.6 38.5c0-10.7 4.5-23.6 14.9-23.6 7.1 0 15.8 11.2 26.1 33.7-8.7 11.2-18 26.1-27 44.4-9.3-23.7-14-41.7-14-54.5zM183.8 369c-53.7 0-90.5-37.4-104.8-93.1-9.6-38.3-21.9-63.9-53.1-72-3.6-1.1-10.2-3.6-10.2-10.2 0-7.3 11.8-17.4 33.2-17.4 25.4 0 46.6 15.6 60.8 36.5l10.9-4c1.6-20.9 12.3-49.5 31-89.6 23.6-50.6 47.3-85.1 63.3-84.7 5.1.2 11.1 6.2 11.1 14.9 0 21-18.5 52.4-34.6 86.5-1.6 3.4-9.1 19.6-9.1 19.6l10.5 4.5c3.4-5.8 10.7-19.8 11.6-22.1l8 17.6c-16.9 14.3-31.7 48.1-31.7 74.7 0 19.4 8.7 31.6 21.4 35.6 11.8 3.6 23 .2 31.7-10.2 2 12.3 10.2 22.9 26.1 22.9 14 0 23.2-8 30.1-21.9 2.6 64.3-50.6 112.4-106.2 112.4zm108.8-149c-3.6 21.4-16.7 45.3-32.7 45.3-15.4 0-14.5-20.3-10.9-32.7 5.6-21.9 20.7-45 31.7-45 10.4.3 15 14.1 11.9 32.4z"/>
        <path d="M238.4 327.8c-45.5 25.8-87.8 9.4-103.8-37.7l13.2-6.2c13.1 38.5 50.4 49 85.3 30.8l5.3 13.1zM226 229.3c0 6.5-5.3 11.8-11.8 11.8s-11.8-5.3-11.8-11.8c0-6.5 5.3-11.8 11.8-11.8 6.4 0 11.8 5.3 11.8 11.8m49.9 14.3c0 6-4.7 10.7-10.7 10.7-5.8 0-10.7-4.7-10.7-10.7 0-6 4.7-10.7 10.7-10.7 6 0 10.7 4.9 10.7 10.7"/>
        <path d="M256 48.8c-1.5 0-2.9-.4-4.2-.9-1.3-.5-2.5-1.3-3.4-2.4-.9-.9-1.8-2.2-2.4-3.4-.5-1.3-.9-2.7-.9-4.2s.4-2.9.9-4.2c.5-1.3 1.3-2.5 2.4-3.4.9-.9 2.2-1.8 3.4-2.4 1.3-.5 2.7-.9 4.4-.9 1.5 0 2.9.4 4.2.9 1.3.5 2.4 1.3 3.4 2.4.9.9 1.8 2.2 2.4 3.4.5 1.3.9 2.7.9 4.2s-.4 2.9-.9 4.2c-.5 1.3-1.3 2.5-2.4 3.4-.9.9-2.2 1.8-3.4 2.4-1.5.5-3 .9-4.4.9zm0-2.2c1.3 0 2.4-.2 3.4-.7 1.1-.4 2-1.1 2.7-1.8.7-.7 1.3-1.6 1.8-2.7.4-1.1.7-2.2.7-3.4 0-1.3-.2-2.4-.7-3.4-.4-1.1-1.1-2-1.8-2.7-.7-.7-1.6-1.5-2.7-1.8-1.1-.5-2.2-.7-3.4-.7s-2.4.2-3.4.7c-1.1.5-2 1.1-2.7 1.8s-1.5 1.6-1.8 2.7-.7 2.2-.7 3.4c0 1.3.2 2.4.7 3.4.4 1.1 1.1 2 1.8 2.7.7.7 1.6 1.5 2.7 1.8 1 .5 2.1.7 3.4.7zm-3.9-14.3h4.2c.7 0 1.3.2 1.8.4s.9.4 1.3.7c.4.4.5.7.7 1.1.2.4.2.7.2 1.1 0 .7-.2 1.3-.5 2-.4.5-.9 1.1-1.6 1.3l2.7 4.5h-2.4L256 39h-1.8v4.4h-2V32.3zm4.2 5.1c.7 0 1.1-.2 1.5-.5.4-.4.4-.7.4-1.3s-.2-.9-.5-1.3c-.4-.2-.7-.4-1.5-.4h-2v3.3h2.2v.2zm90 136.7h25.4v35h35.4v-35h25.4v95.8h-25.4v-37.5h-35.4v37.5h-25.4v-95.8zm102.5 0h68.9V196h-43.5v15h35.7v20.7h-35.7V248h46.4v21.9h-71.8v-95.8zm85 0h39.5c5.1 0 9.8.7 14 2 4.2 1.3 7.8 3.3 10.7 6 2.9 2.7 5.3 6 6.9 9.8 1.6 4 2.4 8.5 2.4 13.6 0 6.3-1.5 11.8-4.2 16.5-2.7 4.7-6.5 8.3-11.1 11.1l20.5 36.8h-27.2l-16.1-32.7h-10.7v32.7h-24.9v-95.8h.2zm37.2 43.2c3.3 0 6-1.1 8.2-3.1 2.2-2 3.1-4.9 3.1-8.2 0-3.6-1.1-6.5-3.1-8.5-2-2.2-4.9-3.1-8.5-3.1h-12.2v23H571v-.1zm53-43.2h25.4v95.8H624v-95.8zm66.4 22.4H661v-22.3h84.2v22.3H716V270h-25.8v-73.5h.2zm77.6-22.4h29.2l33.9 95.8h-27.6l-6.2-19.8h-31.9l-6.3 19.8h-26.3l35.2-95.8zm24.2 57.5l-10.7-35.2-11.1 35.2h21.8zm91-16.3h39.4v43.2c-5.8 4.9-12.3 8.3-19.8 10.5-7.4 2.2-14.9 3.3-22.3 3.3-7.8 0-14.7-1.1-20.9-3.4-6.2-2.4-11.4-5.6-15.8-10s-7.6-9.6-9.8-15.8c-2.2-6.2-3.4-13.2-3.4-21 0-7.3 1.3-14 3.6-20.1 2.4-6.2 5.8-11.4 10.3-16 4.4-4.5 9.6-8 15.8-10.3 6-2.5 12.9-3.8 20.1-3.8 8 0 15.4 1.3 22.3 4s12.7 7.1 17.4 13.1l-16.5 16.7c-2.9-2.9-6.2-5.4-9.6-7.3-3.4-2-7.3-2.9-11.8-2.9-4.2 0-7.8.7-10.9 2.2-3.1 1.5-5.8 3.4-8 5.8s-3.8 5.3-4.9 8.5c-1.1 3.3-1.6 6.9-1.6 10.5 0 4.2.5 7.8 1.8 11.1s2.9 6.2 5.1 8.5c2.2 2.4 4.9 4.2 8 5.4 3.1 1.3 6.7 2 10.7 2 3.1 0 6.2-.4 9.1-1.1 2.9-.7 5.6-2.2 8.3-4v-9.3h-16.7l.1-19.8zm55-41.2h68.9V196h-43.5v15h35.7v20.7h-35.7V248h46.4v21.9h-71.8v-95.8z"/>
    </g>
</svg>
