<svg xmlns="http://www.w3.org/2000/svg" xml:space="preserve" viewBox="0 0 75.1 44.8">
<g fill="currentColor">
    <path d="M22.8 20.6H18v-4.9h-3v12.7h3v-5.1h4.9v5.1h2.9V15.7h-2.9v4.9h-.1zm9.6-4.9h-5.9v12.7h2.9v-4.3h3c3 0 5-1.4 5-4.2s-2-4.2-5-4.2m-.1 6h-2.9v-3.5h2.9c1.5 0 2.1.7 2.1 1.8s-.6 1.7-2.1 1.7m16.5-1.8c0-2.8-2-4.2-5-4.2h-5.9v12.7h2.9v-4.3h3c3 0 5-1.4 5-4.2m-5 1.8h-2.9v-3.5h2.9c1.5 0 2.1.7 2.1 1.8s-.6 1.7-2.1 1.7m8.5 1.6h4.9v5.1h2.9V15.7h-2.9v4.9h-4.9v-4.9h-2.9v12.7h2.9v-5.1z"/>
    <path d="M52.7 0H22.4C10 0 0 10 0 22.4s10 22.4 22.4 22.4h30.3c12.4 0 22.4-10 22.4-22.4S65.1 0 52.7 0m-46 22.4c0 7.9 4.1 15.2 10.9 19.2C7 39 .5 28.2 3.2 17.6 5 10.5 10.5 5 17.6 3.2c-6.8 4-10.9 11.3-10.9 19.2m2.6 0c0-10.9 8.9-19.8 19.8-19.8H46c10.9.1 19.8 9 19.7 20-.1 10.8-8.8 19.5-19.7 19.6H29.1c-10.9 0-19.8-8.8-19.8-19.8m59.1 0c0-7.9-4.1-15.2-10.9-19.2 10.6 2.7 17.1 13.4 14.4 24-1.8 7.1-7.3 12.6-14.4 14.4 6.8-4 10.9-11.3 10.9-19.2"/>
    </g>
</svg>
