<svg xmlns="http://www.w3.org/2000/svg" width="62" height="39.389" viewBox="0 0 62 39.389">
<rect fill="currentColor" x="7" y="10" width="47.5" height="20" />
    <path d="M25.56 15.678h-2.994v3.608h2.994c1.543 0 2.157-.762 2.157-1.8s-.614-1.8-2.157-1.8M37.35 15.678h-2.994v3.608h2.994c1.543 0 2.157-.762 2.157-1.8s-.613-1.8-2.157-1.8" fill="#ffe621"/>
    <path d="M42.305 0h-22.61a19.695 19.695 0 000 39.389h22.61a19.695 19.695 0 000-39.389M18.867 26.2h-3.012v-5.241h-5.021V26.2H7.821V13.186h3.013v4.984h5.021v-4.984h3.013zm6.768-4.426h-3.068V26.2h-3.013V13.186h6.081c3.087 0 5.1 1.432 5.1 4.3s-2.009 4.3-5.1 4.3m11.789 0h-3.068V26.2h-3.013V13.186h6.081c3.087 0 5.1 1.432 5.1 4.3s-2.009 4.3-5.1 4.3M54.179 26.2h-3.013v-5.241h-5.021V26.2h-3.012V13.186h3.013v4.984h5.021v-4.984h3.013z" fill="#ffe621"/>
</svg>
