<svg xmlns="http://www.w3.org/2000/svg" xml:space="preserve" id="prefix__Layer_1" x="0" y="0" version="1.1" viewBox="0 0 75.2 53.2">
   <g fill="currentColor">

    <path id="prefix__Path_2123" d="M22.8 20.6H18v-4.9h-3v12.7h3v-5.1h4.9v5.1h2.9V15.7h-2.9v4.9z" class="prefix__st0"/>
    <path id="prefix__Path_2124" d="M32.4 15.7h-5.9v12.7h2.9v-4.3h3c3 0 5-1.4 5-4.2s-2-4.2-5-4.2m-.1 6h-2.9v-3.5h2.9c1.5 0 2.1.7 2.1 1.8s-.6 1.7-2.1 1.7" class="prefix__st0"/>
    <path id="prefix__Path_2125" d="M48.8 19.9c0-2.8-2-4.2-5-4.2h-5.9v12.7h2.9v-4.3h3c3 0 5-1.4 5-4.2m-5 1.8h-2.9v-3.5h2.9c1.5 0 2.1.7 2.1 1.8s-.6 1.7-2.1 1.7" class="prefix__st0"/>
    <path id="prefix__Path_2126" d="M52.3 23.3h4.9v5.1h2.9V15.7h-2.9v4.9h-4.9v-4.9h-2.9v12.7h2.9v-5.1z" class="prefix__st0"/>
    <path id="prefix__Path_2127" d="M28.4 51.3h2v-.8h-2v-.8h2.1v-.9h-3.1v4.3h3.1v-.9h-2.1v-.9z" class="prefix__st0"/>
    <path id="prefix__Path_2128" d="M34.8 52.3c-.2 0-.3-.1-.3-.4v-1.2h.6V50h-.6v-.8h-.9v.8h-.4v.6c-.2-.5-.7-.7-1.2-.7-.6 0-1.1.3-1.1.9 0 .6.5.9 1.1 1 .4.1.6.2.6.3 0 .2-.2.2-.4.2-.4 0-.7-.3-.8-.6l-.7.4c.2.6.8 1 1.4.9.6.1 1.2-.4 1.2-1v-.1c0-.5-.3-.8-1-1-.4-.1-.6-.2-.6-.3 0-.1.1-.2.4-.2.3 0 .6.2.6.5l.6-.4h.4v1.4c-.1.5.3 1 .8 1h.2c.2 0 .4 0 .6-.1l-.1-.8c-.2.3-.3.3-.4.3" class="prefix__st0"/>
    <path id="prefix__Path_2129" d="M36.6 49.3v.9c.3 0 .7-.1.9-.3V53h1v-4.3h-.9c-.3.5-.6.7-1 .6" class="prefix__st0"/>
    <path id="prefix__Path_2130" d="M40.3 48.7c-.8-.1-1.6.6-1.6 1.4v.1c0 .8.6 1.4 1.4 1.4h.1c.3 0 .7-.1.9-.3-.1.7-.4 1.2-.9 1.2-.3 0-.5-.1-.5-.3V52l-.7-.3c0 .1-.1.2-.1.3 0 .7.5 1.1 1.4 1.1.7 0 1.3-.4 1.5-1.1.2-.4.3-.9.2-1.4.1-1.2-.6-1.9-1.7-1.9m.1 2.1c-.4 0-.7-.3-.7-.7 0-.4.3-.7.7-.7.4 0 .7.3.7.7 0 .4-.3.7-.7.7" class="prefix__st0"/>
    <path id="prefix__Path_2131" d="M42.2 49.3v.9c.3 0 .7-.1.9-.3V53h1v-4.3h-.9c-.2.5-.6.7-1 .6" class="prefix__st0"/>
    <path id="prefix__Path_2132" d="M47.3 48.8h-1l-2 2.8v.8h2.1v.7h.9v-.7h.4v-.9h-.4v-2.7zm-.9 2.7h-1.1l1.1-1.5v1.5z" class="prefix__st0"/>
    <path id="prefix__Path_2133" d="M52.7 0H22.4C10 0 0 10 0 22.4s10 22.4 22.4 22.4h30.3c12.4 0 22.4-10 22.4-22.4S65.1 0 52.7 0m-46 22.4c0 7.9 4.1 15.2 10.9 19.2C7 39 .5 28.2 3.2 17.6 5 10.5 10.5 5 17.6 3.2c-6.8 4-10.9 11.3-10.9 19.2m2.6 0c0-10.9 8.9-19.8 19.8-19.8H46c10.9.1 19.8 9 19.7 20-.1 10.8-8.8 19.5-19.7 19.6H29.1c-10.9 0-19.8-8.8-19.8-19.8m59.1 0c0-7.9-4.1-15.2-10.9-19.2 10.6 2.7 17.1 13.4 14.4 24-1.8 7.1-7.3 12.6-14.4 14.4 6.8-4 10.9-11.3 10.9-19.2" class="prefix__st0"/>
    </g>
</svg>
