<svg xmlns="http://www.w3.org/2000/svg" viewBox="0 0 2050 1600">
    <g fill="currentColor">
        <path d="M627.6 1135.1c-4.9-4.9-10.6-8.8-17-11.6s-13.2-4.2-20.4-4.2c-7.2 0-14 1.4-20.4 4.2-6.4 2.8-12.1 6.7-17 11.6-4.9 4.9-8.8 10.9-11.6 17.8-2.8 6.9-4.2 14.4-4.2 22.4s1.4 15.5 4.2 22.4c2.8 6.9 6.7 12.9 11.6 17.8 4.9 4.9 10.6 8.8 17 11.6 6.4 2.8 13.2 4.2 20.4 4.2 7.2 0 14-1.4 20.4-4.2 6.4-2.8 12.1-6.7 17-11.6 4.9-4.9 8.8-10.9 11.6-17.8 2.8-6.9 4.2-14.4 4.2-22.4s-1.4-15.5-4.2-22.4c-2.8-7-6.7-12.9-11.6-17.8zM924.6 810.3c0-7.2-1.3-14.2-3.8-21-2.5-6.8-6.2-12.8-11-18-4.8-5.2-10.5-9.4-17.2-12.6-6.7-3.2-14.1-4.8-22.4-4.8-8.8 0-16.6 1.6-23.4 4.8-6.8 3.2-12.6 7.5-17.4 12.8-4.8 5.3-8.4 11.3-10.8 18-2.4 6.7-3.6 13.5-3.6 20.4 0 7.7 1.3 15.1 3.8 22s6.1 13 10.8 18.2c4.7 5.2 10.3 9.3 17 12.4 6.7 3.1 14.1 4.6 22.4 4.6 8.5 0 16.2-1.6 23-4.8s12.6-7.4 17.4-12.6c4.8-5.2 8.5-11.3 11.2-18.2 2.7-7 4-14 4-21.2z"/>
        <path d="M1988.8 1612.3L1894.6 35.5H-44.8v1483.8h1532L1738 605.9v959.9l250.8 46.5zM499.8 260.5h66.4v296h-66.4v-296zm-12.4 439h66.4v122.8c0 3.7.2 8.2.6 13.4.4 5.2 1.7 10.1 3.8 14.6 2.1 4.5 5.7 8.4 10.6 11.6 4.9 3.2 11.8 4.8 20.6 4.8 4.8 0 9.5-.7 14-2.2 4.5-1.5 8.6-3.9 12.2-7.2 3.6-3.3 6.5-7.9 8.6-13.8 2.1-5.9 3.2-13.2 3.2-22v-122h66.4v222H631v-23.6h-.8c-3.5 7.2-7.6 12.8-12.4 16.8-4.8 4-9.9 7.1-15.2 9.2-5.3 2.1-10.6 3.5-15.8 4-5.2.5-9.9.8-14.2.8-3.5 0-7.9-.3-13.2-.8-5.3-.5-11.1-1.8-17.2-3.8-6.1-2-12.3-4.9-18.4-8.6-6.1-3.7-11.6-8.7-16.4-14.8-4.5-5.6-8.1-10.9-10.6-15.8s-4.5-10-6-15.2c-1.5-5.2-2.4-10.8-2.8-16.8-.4-6-.6-12.9-.6-20.6V699.5zm-307.2-439h161.6v66.4h-89.2v50.4h86v66.4h-86v112.8h-72.4v-296zm0 365h75.6v111.2h96.8V625.5h75.6v296h-75.6V803.1h-96.8v118.4h-75.6v-296zm249.6 661h-65.6l-112.8-180-.8.4 2 179.6h-72.4v-296h65.2l114.4 186 .8-.8-3.2-185.2h72.4v296zm16.4-730h-66.4v-222h66.4v222zm0-245.6h-66.4v-50.4h66.4v50.4zm256.2 905.8c-4.9 14-12.3 26.7-22.2 38-9.9 11.3-22.3 20.6-37.2 27.8-14.9 7.2-32.5 10.8-52.8 10.8-20.3 0-37.9-3.6-52.8-10.8-14.9-7.2-27.3-16.5-37.2-27.8-9.9-11.3-17.3-24-22.2-38-4.9-14-7.4-27.8-7.4-41.4 0-13.6 2.5-27.4 7.4-41.4s12.3-26.7 22.2-38c9.9-11.3 22.3-20.6 37.2-27.8 14.9-7.2 32.5-10.8 52.8-10.8 20.3 0 37.9 3.6 52.8 10.8 14.9 7.2 27.3 16.5 37.2 27.8 9.9 11.3 17.3 24 22.2 38 4.9 14 7.4 27.8 7.4 41.4 0 13.6-2.5 27.4-7.4 41.4zm44.8-808.6c-2-5.1-5.3-9.5-9.8-13.2-4.5-3.7-10.9-5.6-19.2-5.6-9.3 0-16.5 1.9-21.6 5.8-5.1 3.9-8.8 8.5-11.2 13.8-2.4 5.3-3.8 10.8-4.2 16.4-.4 5.6-.6 10-.6 13.2v118h-66.4v-222h62v23.6h.8c1.3-2.4 3.3-5.3 6-8.8 2.7-3.5 6.3-6.9 11-10.2 4.7-3.3 10.6-6.2 17.8-8.6 7.2-2.4 16-3.6 26.4-3.6 4.8 0 10.1.5 15.8 1.6 5.7 1.1 11.4 3.1 17 6s11.1 6.9 16.4 12c5.3 5.1 10.3 11.7 14.8 20 6.9-10.9 16.1-20.3 27.6-28 11.5-7.7 25.7-11.6 42.8-11.6 4 0 8.4.3 13.2.8 4.8.5 9.8 1.6 15 3.2 5.2 1.6 10.4 3.9 15.6 6.8 5.2 2.9 10.1 6.8 14.6 11.6 5.1 5.6 9.2 10.9 12.4 15.8 3.2 4.9 5.7 10.6 7.4 17 1.7 6.4 2.9 13.8 3.4 22.2.5 8.4.8 18.7.8 31v121.2h-66.4v-118c0-4.5-.2-9.7-.6-15.4-.4-5.7-1.7-11.1-3.8-16-2.1-4.9-5.5-9.1-10-12.6s-11.1-5.2-19.6-5.2c-9.3 0-16.5 1.8-21.4 5.4-4.9 3.6-8.5 7.9-10.8 13-2.3 5.1-3.6 10.1-4 15.2-.4 5.1-.6 9.2-.6 12.4v121.2h-66.4V435.7c0-2.9-.2-7-.6-12.2s-1.6-10.4-3.6-15.4zm122.6 715.6c-7.7.3-14.8.9-21.2 2-6.4 1.1-11.9 3.1-16.6 6-4.7 2.9-8.3 7.1-10.8 12.4-2.5 5.3-3.8 12.1-3.8 20.4v122H751v-222h62.4v23.6h.8c1.3-2.7 3.2-5.8 5.6-9.4 2.4-3.6 5.7-7 9.8-10.2 4.1-3.2 9.5-5.9 16-8.2 6.5-2.3 14.6-3.4 24.2-3.4v66.8zm-31.2-204.2c-11.2-6.4-18.9-13.6-23.2-21.6h-.8v23.6H751v-296h66.4v91.6c5.9-6.4 12.1-11.3 18.6-14.6 6.5-3.3 12.8-5.8 18.8-7.4s11.4-2.5 16.2-2.8c4.8-.3 8.4-.4 10.8-.4 11.5 0 23.7 2.2 36.6 6.6 12.9 4.4 24.7 11.3 35.4 20.6s19.5 21.4 26.6 36.2c7.1 14.8 10.6 32.7 10.6 53.8 0 20-3.2 37.5-9.6 52.6-6.4 15.1-14.8 27.6-25.2 37.6-10.4 10-22.3 17.5-35.8 22.4-13.5 4.9-27.3 7.4-41.4 7.4-15.7 0-29.2-3.2-40.4-9.6zm187.2 195.4h-32v171.6h-66.4v-171.6h-32.8v-50.4h32.8v-74h66.4v74h32v50.4zm236.4 171.6h-66.4v-120.8c0-2.7-.2-6.6-.6-11.8-.4-5.2-1.7-10.3-3.8-15.4-2.1-5.1-5.7-9.5-10.6-13.4-4.9-3.9-11.8-5.8-20.6-5.8-9.3 0-16.5 1.8-21.6 5.4-5.1 3.6-8.7 7.8-11 12.6-2.3 4.8-3.6 9.7-4 14.6-.4 4.9-.6 8.7-.6 11.4v123.2h-66.4v-296h66.4v94.4h.8c5.6-10.1 13.5-17.3 23.8-21.6 10.3-4.3 21.4-6.4 33.4-6.4 5.3 0 10.8.5 16.4 1.4 5.6.9 11.1 2.4 16.4 4.4 5.3 2 10.4 4.5 15.2 7.6 4.8 3.1 8.9 6.7 12.4 11 4.8 5.6 8.5 11.1 11.2 16.4 2.7 5.3 4.7 11.2 6.2 17.6 1.5 6.4 2.4 13.4 2.8 21 .4 7.6.6 16.3.6 26.2v124z"/>
    </g>
</svg>
