<svg xmlns="http://www.w3.org/2000/svg" style="display:block" viewBox="0 0 1500 433">
<g fill="currentColor">
  <path d="M0 0h2a1866 1866 0 0 1 49 0c17 0 30 2 44 12l2 2c10 8 18 22 20 35v11a535 535 0 0 1-2 39c-2 26-7 49-26 68l-5 4 3 1c21 3 37 11 52 25l2 2c3 3 4 5 5 9l-8 3-2 1-3 1-2 1h-4l-3-4a61 61 0 0 0-40-23c-14-2-27 0-40 6 2 12 13 21 23 27 11 7 21 9 33 9l3 1c15 0 28-7 42-12a7340 7340 0 0 1 22-9c10-4 16-9 21-18 4-10 2-21-2-30l-1-4a1431 1431 0 0 0-5-16c-7-27-7-27-25-47-10-4-20-3-30-2l1-26c6-3 11-3 18-3h3c17 0 30 7 42 19l1 2c9 9 13 23 17 35a1400 1400 0 0 0 12 38c5 17 3 33-5 49a67 67 0 0 1-44 29l-3 1a1582 1582 0 0 1-16 5c-30 7-57 12-85-4l-3-2 1 4c5 24-2 46-14 66-4-1-7-4-10-8l-1-1c-3-4-3-4-3-7l4-7c9-14 11-30 8-46-3-12-9-23-17-32-8 3-12 12-16 20-7 17-7 35 0 52 3 7 8 12 13 18a3025 3025 0 0 1 13 17l2 2 5 6 2 3 3 3c6 7 13 13 24 14 13 1 23-6 33-14l12-9a9647 9647 0 0 0 12-8c16-12 16-12 25-30 1-10-2-18-8-26v-3l10-3 3-1 3-1h3l8-1a1134 1134 0 0 1 5 10c6 13 7 28 3 42-7 20-23 31-39 43l-2 2-10 7-7 5-6 3-2 2a66 66 0 0 1-48 12c-9-2-18-6-25-12l-2-2c-8-6-14-15-19-23l-2-3-2-2-1-3-2-6h-2l-3-8h-2l-3-8-2-1a98 98 0 0 1-11-66l-2 1c-22 14-45 14-69 9 0-4 2-7 4-11l2-3 5-4 9 2c17 3 33 0 47-8 11-7 18-16 24-27-7-7-21-8-31-8-16 0-32 6-44 18-7 7-12 16-18 25l-14 22c-6 9-10 17-8 28s9 18 18 24l5 4 2 1 12 9a6877 6877 0 0 0 12 9c15 11 15 11 33 13 9-2 16-5 23-13l2-3h3l2 4 2 2 1 3 3 5 1 2 4 4c-1 5-6 9-9 12-5 5-10 7-15 10l-3 1c-12 5-29 5-41 1l-5-3-3-1-25-17a1418 1418 0 0 0-23-17 65 65 0 0 1-29-45c-2-14 2-29 11-41l9-11 9-11 19-22 2-2c15-16 34-22 55-26l-2-1a83 83 0 0 1-28-53v-11l20 5v4c2 18 7 35 21 47 10 8 21 13 34 15 0-20-1-39-15-55a88 88 0 0 0-43-21 7543 7543 0 0 1-24-7c-13-3-25-5-37 1-11 6-14 20-18 31l-1 4a1882 1882 0 0 0-6 18l-3 9-1 4c-4 10-6 20-1 31 6 10 13 14 24 18-1 5-4 7-7 11a4260 4260 0 0 0-9 11c-15-4-26-13-34-26-9-16-10-34-6-51a525 525 0 0 1 17-49l1-3c6-17 18-29 34-36 7-3 15-4 23-4l2-1c14 1 28 8 41 13a1604 1604 0 0 0 31 13l1 1c18 10 30 24 39 42l1-3c12-20 28-38 51-45h2l1 21-2 1c-18 6-31 16-39 33a66 66 0 0 0-6 26v14c18-4 34-12 45-28 7-11 11-23 11-36v-3a681 681 0 0 0-2-37c-1-14-1-26-12-36-10-8-22-7-34-7h-4a2092 2092 0 0 0-27 0h-3c-15 0-15 0-28 5l-2 1a35 35 0 0 0-12 28l-1 4-17-6-2-1-6-3c-2-14 4-27 12-38C-33 7-19 0 0 0Z" transform="translate(164 31)"/>
  <path d="M0 0h15a191 191 0 0 1 9 35l4-13 1-3c2-7 2-12 1-19h14l3 11 1 4 6 20 7-28 2-7h15l-4 20-1 4a3151 3151 0 0 1-8 25l-1 3-1 3v3l-2 3H47l-8-28-5 18-1 3-1 3-2 4a177 177 0 0 1-11 0h-3A12495 12495 0 0 1 6 27l-1-3-3-13-1-4-1-7Z" transform="translate(432 63)"/>
  <path d="M0 0h15l4 10v2a1622 1622 0 0 1 5 22c6-11 8-22 6-34h14l10 35 5-22V9l1-2 2-7h16l-5 22-1 3a4181 4181 0 0 1-7 23l-1 4-1 2v3l-2 4H51c-3 0-3 0-5-2l-1-5-1-2v-3a1172 1172 0 0 0-5-15l-1 2-2 10-1 3-1 3-1 3-3 6H17A766 766 0 0 1 0 0Z" transform="translate(922 313)"/>
  <path d="m0 0 8 1a84 84 0 0 1 0 8v30a21248 21248 0 0 1 0 140v2a1046496 1046496 0 0 0 0 130H0V0Z" transform="translate(863 63)"/>
  <path d="m0 0 7 10v3h2l2 6h2v3h2l2 3 7-10 1-2 2-3 2-3 2-5c2-2 2-2 5-2h10a14447 14447 0 0 1 0 46v11l-1 3H35l-4-1v-9a1988 1988 0 0 1-1-21l-1 2-5 8-1 2-2 3-1 2-2 2h-3l-3-4-1-3-2-2-2-3a943 943 0 0 1-4-4 4620 4620 0 0 1 0 20l-1 4-1 4h-13V0H0Z" transform="translate(938 231)"/>
  <path d="M0 0h20c8 0 15 0 21 6 3 5 4 10 2 15l-4 8 1 1 2 2 2 1c3 4 2 9 2 13 0 5-3 8-6 11-11 7-29 4-40 4V0Zm15 13-1 11h8c3 0 5-1 7-3v-6c-2-2-2-2-5-2h-9Zm0 23-1 12a710 710 0 0 0 11 0l6-2v-7l-3-3H15Z" transform="translate(926 147)"/>
  <path d="m0 0 1 3 2-1c5-3 9-3 14-2l6 4 3-2c5-3 10-3 15-2 5 2 7 5 9 9a42 42 0 0 1 0 11 693 693 0 0 1 0 26H36v-6a7311 7311 0 0 0-1-17v-4l-1-5h-9v32H11v-6a7311 7311 0 0 0-1-17v-4l-1-5H1v3a4765 4765 0 0 1 0 21v4l-1 4h-10l-4-1V35a386246991 386246991 0 0 0 0-33l5-1 2-1h7Z" transform="translate(545 245)"/>
  <path d="M0 0v23l5-3c6-1 10-1 16 2 5 5 8 9 8 17s0 15-5 22c-4 4-8 6-14 6L0 65l-1 1h-13l-1-8v-7a9221 9221 0 0 0 0-38V7l1-5 5-1 3-1h6Zm0 35v17c5 2 5 2 10 1 3-3 4-6 4-10 0-5-1-7-4-10L0 35Z" transform="translate(617 225)"/>
  <path d="M0 0a17545 17545 0 0 1 0 62l-1 4h-10c-3 0-3 0-5-2l-2 2c-6 2-10 2-15 0-5-3-8-7-10-13-2-9-2-18 3-26 3-3 5-6 9-7h9l6 2 1-19c5-2 9-3 15-3Zm-26 35c-3 4-3 7-3 12l3 6c5 2 6 1 11-1V34c-4-2-8-2-11 1Z" transform="translate(809 225)"/>
  <path d="m0 0 1 22 7-3c6-1 10 0 15 4 7 8 7 17 6 27-2 7-5 11-11 15l-7 1H8l-7-2-2 2h-13V2L0 0Zm0 34v18c3 2 7 1 10 1 3-2 3-3 4-6l-1-12c-4-4-8-3-13-1Z" transform="translate(1069 142)"/>
  <path d="M0 0h11a158389 158389 0 0 1 15 37l1 3a4023 4023 0 0 1 5 12l1 3 1 2 1 4H19l-4-11H-5l-2 9-1 2h-15c1-5 1-9 4-14v-2a1248 1248 0 0 1 5-11l1-2a3550 3550 0 0 0 7-18l2-4V1l4-1Zm5 22-3 7v2c-2 3-2 3-2 7h10L7 27l-1-3v-2H5Z" transform="translate(455 313)"/>
  <path d="m0 0 1 22 6-3c5-1 10 0 14 3l2 4 2 1a309799194 309799194 0 0 1 2 26l-1 13H12v-6a3555 3555 0 0 0-1-21l-2-6-8 1v3a4930 4930 0 0 1-1 21v4l-1 4h-10l-4-1V55a27548 27548 0 0 1 0-19V2l4-1 2-1h9Z" transform="translate(665 142)"/>
  <path d="m0 0 1 22 6-3c6-1 10 0 15 4 4 5 4 9 4 15a268258536 268258536 0 0 0 0 28H12v-6a12712 12712 0 0 0-1-16v-4l-1-6H1L0 66h-15V2L0 0Z" transform="translate(591 308)"/>
  <path d="m0 0 1 33 5-6c3-4 6-7 11-8l12 1c-2 5-6 8-10 11-2 3-3 4-3 8l3 6 2 3 2 3 4 7 2 3 1 5c-13 1-13 1-17-1l-3-7a455 455 0 0 0-5-10l-4 3-1 8v7h-15V3c9-3 9-3 15-3Z" transform="translate(1280 308)"/>
  <path d="M0 0v22l7-3c5-1 9 0 13 3 3 3 5 6 6 11a197 197 0 0 1 0 22v11H11l-1-31c-5-3-5-3-11-1v32h-14V2L0 0Z" transform="translate(1369 308)"/>
  <path d="m0 0 1 34 12-14h16c0 3 0 3-2 5a2138 2138 0 0 1-7 7l-4 4 12 22c3 5 3 5 3 8-13 1-13 1-17-1l-3-7a372 372 0 0 0-6-11c-4 4-5 7-5 12v7h-14V2L0 0Z" transform="translate(576 142)"/>
  <path d="M0 0v15l-7-3c-5-2-10-1-15-1-4 3-5 5-6 10 0 7 0 13 3 20 3 3 6 4 11 4 5-1 9-2 13-5h2v15c-9 5-19 6-29 3-7-2-11-8-15-14-2-5-1-11-1-16v-3c0-6 0-10 2-15h2l1-2c2-5 7-8 12-10 9-3 18-2 27 2Z" transform="translate(477 233)"/>
  <path d="M0 0h16l8 24 1-2a8154 8154 0 0 1 4-15V4l2-4h15l-2 11-1 2-1 3-1 3a2330 2330 0 0 1-8 21l-1 2c-3 9-7 18-15 22l-9 1H5l-4-1V52h4c4 0 5 0 7-2l4-8-4-12-1-2A3115 3115 0 0 0 2 8L0 0Z" transform="translate(1085 78)"/>
  <path d="M0 0h16l7 23 5-17 2-6h16l-6 20-1 2a3166 3166 0 0 1-7 20l-1 2c-3 8-7 16-15 20l-7 1H6l-5-1V52h7c4-1 5-3 7-7 2-5-1-9-3-14l-2-3A578 578 0 0 0 2 9L1 6 0 0Z" transform="translate(761 328)"/>
  <path d="M0 0h16l8 24 4-15 1-3V3l2-3a185 185 0 0 1 15 0l-5 18-1 2a1565 1565 0 0 1-5 13c-9 26-9 26-19 31a190 190 0 0 1-15 0V52l12-1c3-7 4-10 1-16l-1-3-1-2A1160 1160 0 0 0 2 9L1 7V5L0 0Z" transform="translate(1030 245)"/>
  <path d="M0 0h17l10 21 5-10a273 273 0 0 1 4-9c2-2 2-2 6-2h12c0 5-1 6-3 10l-1 2a986 986 0 0 1-5 9l-8 13-2 8v19H19v-5c1-16-3-27-12-41L2 8 1 6 0 0Z" transform="translate(1135 313)"/>
  <path d="M0 0c5 5 7 12 7 19 0 8-2 13-7 19-5 4-9 5-16 5h-2c-5 0-9-2-14-5-6-8-7-15-6-25 1-6 4-10 9-14 9-6 20-4 29 1Zm-20 10c-3 4-3 8-3 12l4 8h6c3-2 4-4 5-8v-7l-5-7c-4 0-4 0-7 2Z" transform="translate(1219 332)"/>
  <path d="M0 0c5 3 8 7 11 12 2 8 2 18-3 25-4 5-9 9-16 9-7 1-13 0-18-4a28 28 0 0 1-2-37l2-2 3-2c6-4 16-3 23-1Zm-16 13c-3 5-3 9-2 15l3 5h7c4-3 4-7 4-11s0-7-3-10c-4-1-6-2-9 1Z" transform="translate(515 246)"/>
  <path d="m0 0 5 4 3 3c4 6 5 13 4 21-2 7-5 12-12 16-6 3-14 3-21 1-5-2-9-6-11-12-2-8-2-18 2-26 8-8 19-11 30-7Zm-16 12c-2 5-2 10-2 15l3 6c5 1 5 1 10-2 3-5 2-11 0-17-3-3-7-4-11-2Z" transform="translate(1210 246)"/>
  <path d="M0 0c5 3 8 6 10 12 1 8 2 17-3 24-4 6-9 9-16 10-7 0-13 0-18-5-6-7-8-14-8-23 1-6 3-12 8-16 8-5 19-6 27-2Zm-17 12c-3 5-3 9-2 15l3 5c5 1 5 1 9-1 3-4 3-9 2-14 0-3 0-3-3-6-4-1-6-2-9 1Z" transform="translate(1110 247)"/>
  <path d="M0 0c7 6 8 12 9 21 0 7-2 12-6 17-6 6-12 6-21 6-6 0-10-2-14-7-5-8-5-16-4-25 2-6 6-10 11-13 7-4 18-3 25 1Zm-19 12c-3 4-3 9-2 14l3 5 7 1 4-5V17c0-3-1-5-3-7-4-2-6 0-9 2Z" transform="translate(513 164)"/>
  <path d="M0 0c5 4 7 7 9 13 1 16 1 16-3 22-4 5-9 9-15 9-14 1-14 1-20-4-5-5-6-10-6-17 0-8 0-15 6-21 9-6 20-8 29-2Zm-17 10c-3 4-3 6-3 11v3c0 3 0 5 2 7l8 1c3-2 3-3 4-6 1-6 1-10-3-15l-4-1h-4Z" transform="translate(657 330)"/>
  <path d="M0 0h17l10 21 5-10 2-4 2-5 4-2h15l-8 16a1473 1473 0 0 0-7 13c-4 7-5 12-5 20v9l-1 3H23l-4-1V44l-1-3v-3A1005 1005 0 0 1 4 10L2 7 0 0Z" transform="translate(431 147)"/>
  <path d="M0 0h50c2 4 1 10 1 14l-17 1v46H18V14H0V0Z" transform="translate(922 63)"/>
  <path d="M0 0v3l2-1c5-3 10-3 15-2 4 2 6 4 8 9l1 11v2a1163 1163 0 0 1 0 24H15l-4-1v-9a2051 2051 0 0 1 0-22H0v3a4765 4765 0 0 1 0 21v4l-1 4h-10l-4-1V33a3777 3777 0 0 1 0-30c5-2 9-3 15-3Z" transform="translate(689 245)"/>
  <path d="m0 0 2 4 2-1c4-3 8-4 13-3 5 2 8 5 11 10v10a1741 1741 0 0 1 0 18v2l-1 7H14v-3a2295 2295 0 0 0-1-24l-2-6-8 1v3a4930 4930 0 0 1-1 21v4l-1 4H-9l-4-1V36a386246991 386246991 0 0 0 0-33L0 0Z" transform="translate(1140 161)"/>
  <path d="M0 0c5 3 7 8 8 13v12l-26 1c1 4 1 4 4 5 7 1 13 0 20-3v9c0 3 0 3-2 5-8 3-17 4-25 2-5-3-10-7-12-13-2-8-2-17 3-25 7-9 19-12 30-6Zm-17 10-2 5h13l-2-6c-5-1-5-1-9 1Z" transform="translate(787 164)"/>
  <path d="M0 0h4c5 0 8 2 12 6 5 7 4 11 4 21l-26 1c2 5 2 5 5 6 6 1 11 0 16-3l3-1v13c-7 4-16 6-24 4-5-2-8-4-11-8l-1-1c-5-8-4-16-3-24 2-6 6-9 11-13L0 0Zm-5 13-2 4H6l-3-6-8 2Z" transform="translate(741 245)"/>
  <path d="M0 0c4 4 4 6 6 11v13l-26 1 4 5c7 1 12 1 18-3h2v13c-8 4-18 5-27 2-5-2-10-6-12-12-2-8-2-18 3-25C-24-5-11-7 0 0Zm-18 8-3 6h13l-2-6h-8Z" transform="translate(1032 331)"/>
  <path d="M0 0c6 5 6 12 7 19l-1 5-26 1c1 4 1 4 4 5 6 1 11 0 17-2h3v13c-10 2-20 5-29 0-5-3-8-7-10-12-1-9-2-18 4-25 4-5 8-7 13-8 7-1 12 0 18 4Zm-19 9c-2 2-2 2-1 5h12l-2-6c-5-1-5-1-9 1Z" transform="translate(542 81)"/>
  <path d="M0 0c3 3 6 7 7 11v14l-25 1 3 5c6 1 13 0 18-3h2c2 4 2 8 1 12-6 5-14 4-21 4-6 0-9-1-14-6-4-6-5-12-5-20 1-7 3-12 8-17 8-5 18-6 26-1Zm-18 10-1 5h13c-1-5-1-5-5-7-4 0-4 0-7 2Z" transform="translate(1491 330)"/>
  <path d="M0 0v3a4930 4930 0 0 0 1 21v4l1 4 9-1 1-29 14-2v46H12l-1-3-2 2c-5 2-9 2-14 1-4-2-8-5-10-10V24a2105 2105 0 0 1 0-22l4-1 2-1h9Z" transform="translate(506 328)"/>
  <path d="M0 0c6 3 8 7 10 13v10a640 640 0 0 1 0 10L9 45l-6 1h-4l-4-3-2 1c-4 2-9 2-13 1-5-2-6-3-8-7-2-5-1-8 1-13 3-5 7-6 12-7l10-2v-4c-10 0-10 0-18 3h-3V2c8-3 17-6 26-2Zm-14 29 1 5c4 1 4 1 9-1v-7c-5 0-7 0-10 3Z" transform="translate(1039 163)"/>
  <path d="M0 0c4 3 7 7 8 12v10a2105 2105 0 0 1 0 22H-2l-6-1-2 1c-5 2-9 2-13 0s-5-3-7-7c-1-5-1-9 1-14 7-5 14-6 22-8l-3-4c-6 0-9 1-13 4h-5V1c8-3 20-5 28-1Zm-15 27-1 5 2 2 8-2v-7l-9 2Z" transform="translate(1021 247)"/>
  <path d="M0 0c4 4 6 7 6 13v7a2242 2242 0 0 1 0 23H-8v-2l-3 2c-4 1-8 2-13 0l-8-7v-8c0-3 1-5 4-7 6-4 12-6 20-6l-3-5c-6-1-9 0-14 3l-5 1V4c0-3 0-3 2-5 9-4 19-5 28 1Zm-17 26-1 5 2 2 8-2v-7c-4 0-6 0-9 2Z" transform="translate(1036 81)"/>
  <path d="M0 0v13l-6-2-7 1-2 6 10 1v13h-10v3a4765 4765 0 0 1 0 21v4l-1 4h-10l-4-1v-9a2051 2051 0 0 1 0-22h-6l1-13 5-1v-2c1-8 3-12 10-17 6-2 14-2 20 1Z" transform="translate(1259 227)"/>
  <path d="M0 0v13l-7-2-12-1c2 3 5 4 8 5 6 2 9 4 12 9 2 4 1 8 0 12-3 4-5 6-10 8-17 1-17 1-25-3V28l4 1c5 2 11 3 17 3l-1-3-6-2c-6-2-10-4-13-9-2-5-2-9 1-13 9-11 20-9 32-5Z" transform="translate(1346 330)"/>
  <path d="M0 0v14l-3-1c-5-3-10-3-16-3v3l2 1c7 1 13 3 18 9 2 5 2 9 0 14-3 4-6 6-11 8-8 1-15 0-23-3l-1-4V28l2 1c6 2 11 4 18 3v-3l-3-1-3-1-4-2c-4-1-7-3-9-8-1-5-1-9 2-14 9-8 20-7 31-3Z" transform="translate(587 80)"/>
  <path d="M0 0v13l-6-2-13-1v2l3 1c14 5 14 5 17 10v13c-3 4-6 6-11 8-8 0-16 1-24-3V28l4 1c5 2 11 3 17 3l-1-3-6-2c-6-2-10-4-13-9-2-4-2-7-1-11 2-5 5-7 10-9 8-2 16-1 24 2Z" transform="translate(643 164)"/>
  <path d="M0 0v13l-7-2-11-1-1 2 3 1c13 5 13 5 17 11 2 6 1 10-2 15-5 5-10 6-16 5h-3c-5 0-9-1-14-3V28l4 1c5 2 11 3 17 3l-1-3-6-2c-6-2-10-4-13-9-2-4-2-8 0-13 9-11 21-9 33-5Z" transform="translate(1077 330)"/>
  <path d="M0 0v12h11v13H1v20l11-1-1 13c-6 2-13 2-19 0-4-2-6-6-7-10V25h-8a1096 1096 0 0 1 1-8l1-5h6V2L0 0Z" transform="translate(1103 316)"/>
  <path d="M0 0v12h10l1 3v7l-1 3H0l1 20 10-1v13c-6 2-13 2-19 0-4-2-5-5-7-9l-1-12V25h-7v-6l1-3 1-4h6V2L0 0Z" transform="translate(559 316)"/>
  <path d="M0 0v12h11v13H1v17l1 3 10-1v13c-6 2-15 2-21 0-4-4-6-9-6-15V26l-8-1 2-13h6V3c6-2 9-3 15-3Z" transform="translate(747 316)"/>
  <path d="M0 0v12h11v13H0l1 21 11-2v13c-8 3-14 3-21-1-3-1-4-3-5-6V25h-9l2-13h7V2L0 0Z" transform="translate(613 66)"/>
  <path d="M0 0v14l-7-3c-5-1-5-1-10 2-3 3-2 5-2 9v3l1 6c6 0 11 1 17-3h2v10c0 3 0 3-2 5-7 3-14 3-21 1-5-2-10-5-12-10-3-8-3-16 0-24 3-5 7-10 13-12 7-2 15-1 21 2Z" transform="translate(1082 80)"/>
  <path d="m0 0 1 3 2-1c4-2 8-2 12-2l1 4v10H9l-7 2-1 30h-15V2L0 0Z" transform="translate(1440 328)"/>
  <path d="m0 0 2 4 2-1c5-3 7-3 13-2v14h-7l-8 1v31l-15-1V36a386246991 386246991 0 0 0 0-33L0 0Z" transform="translate(735 161)"/>
  <path d="m0 0 2 4 2-1c3-2 5-3 9-3l4 2v13H9l-7 1v3a4461 4461 0 0 1 0 20v4l-1 4H-9l-4-1V36a386246991 386246991 0 0 0 0-33L0 0Z" transform="translate(991 161)"/>
  <path d="m0 0 2 4 2-1c3-2 5-3 9-3l4 2v13H9c-4 0-5 1-7 3v25l-1 4H-9l-4-1V36a386246991 386246991 0 0 0 0-33L0 0Z" transform="translate(540 161)"/>
  <path d="m0 0 1 4 3-2c3-3 6-2 11-2l1 4v11l-3-1-11 2-1 30h-15V3c5-2 9-3 14-3Z" transform="translate(985 78)"/>
  <path d="m0 0 1 3 2-1c2-2 4-2 7-2h5v15l-7-1-7 2v30h-15V2L0 0Z" transform="translate(686 328)"/>
  <path d="m0 0 1 3 2-1c4-2 7-2 11-2l1 4v11H7l-7 1v30h-14V2L0 0Z" transform="translate(1140 245)"/>
  <path d="M0 0v4l2-2c4-3 8-2 13-2v15l-7-1-7 2-1 30h-14V2c5-2 9-2 14-2Z" transform="translate(1245 328)"/>
  <path d="M0 0a9721 9721 0 0 1 0 36v8l-1 3h-14V3L0 0Z" transform="translate(1119 161)"/>
  <path d="M0 0v46h-15V2L0 0Z" transform="translate(1418 328)"/>
  <path d="M0 0a9721 9721 0 0 1 0 36v8l-1 3h-13l-1-6v-8a3741 3741 0 0 1 0-30l6-1 4-1 5-1Z" transform="translate(714 161)"/>
  <path d="M0 0v46h-15V3c9-3 9-3 15-3Z" transform="translate(721 328)"/>
  <path d="M0 0a9301 9301 0 0 1 0 35v8l-1 3h-14V2L0 0Z" transform="translate(666 245)"/>
  <path d="M0 0c2 3 1 6 0 9-2 3-4 3-7 4-5-1-6-1-9-5V1l6-5c4 0 7 1 10 4Z" transform="translate(1418 313)"/>
  <path d="M0 0c2 4 3 6 2 10-3 3-4 4-8 4s-5-1-8-3l-1-7c5-6 8-7 15-4Z" transform="translate(720 311)"/>
  <path d="m0 0 5 4v7c-2 3-4 4-7 4-4 1-6 0-9-2V3c3-4 6-4 11-3Z" transform="translate(662 227)"/>
  <path d="M0 0c3 2 3 2 4 5 0 4-1 5-3 8-4 3-6 2-11 1l-3-3c0-4-1-6 1-9 4-3 8-3 12-2Z" transform="translate(1116 144)"/>
  <path d="M0 0c4 0 4 0 7 2 2 4 2 6 1 10l-5 3c-4 0-6 0-9-2-2-2-2-4-2-7 2-4 3-6 8-6Z" transform="translate(706 144)"/>
  </g>
</svg>