<svg xmlns="http://www.w3.org/2000/svg" width="176.41mm" height="63.07mm" viewBox="0 0 500.06 178.78">
  <defs>
    <style>
      .cls-1 {
        fill: currentColor;
      }
    </style>
  </defs>
  <g id="Layer_2" data-name="Layer 2">
    <g id="Layer_1-2" data-name="Layer 1">
      <g>
        <g>
          <g>
            <path class="cls-1" d="M182.82,45.66H194V69.38h29.29V45.66h11.15v59H223.26V79.29H194v25.4H182.82Z"/>
            <path class="cls-1" d="M280.42,98.67,279,100.13a17.74,17.74,0,0,1-3.45,2.52,26.57,26.57,0,0,1-5.75,2.39,28.91,28.91,0,0,1-8.36,1.06,23.43,23.43,0,0,1-9-1.68,20.41,20.41,0,0,1-7-4.65A20,20,0,0,1,241,92.65a26.23,26.23,0,0,1-1.55-9.2A23.15,23.15,0,0,1,241,74.91a21,21,0,0,1,4.33-6.86,20.22,20.22,0,0,1,6.64-4.6,21.13,21.13,0,0,1,8.54-1.68,20.27,20.27,0,0,1,9.6,2.08,17.7,17.7,0,0,1,6.33,5.44,22.46,22.46,0,0,1,3.45,7.61A35.49,35.49,0,0,1,281,85.57v1.51H250a8.45,8.45,0,0,0,1,4.15,10.61,10.61,0,0,0,2.65,3.19,12,12,0,0,0,3.72,2,12.72,12.72,0,0,0,4.11.7,20.89,20.89,0,0,0,9.12-1.9,12.49,12.49,0,0,0,2.61-1.59c.68-.56,1.19-1,1.55-1.37ZM270.25,79.55a8.77,8.77,0,0,0-.62-3.18,9.12,9.12,0,0,0-1.82-2.88,9.48,9.48,0,0,0-3.05-2.12,10.23,10.23,0,0,0-4.25-.84,11.66,11.66,0,0,0-4.56.84,10.94,10.94,0,0,0-3.32,2.12,9.27,9.27,0,0,0-2,2.88,7.8,7.8,0,0,0-.71,3.18Z"/>
            <path class="cls-1" d="M286.35,63.18h10l.27,5.22a20.21,20.21,0,0,1,1.81-1.94A14.09,14.09,0,0,1,301,64.51a16.38,16.38,0,0,1,3.5-1.5,15,15,0,0,1,4.55-.62,19.69,19.69,0,0,1,2.7.17,13.45,13.45,0,0,1,2.44.62L312.1,73a9.4,9.4,0,0,0-2.17-.62,16.34,16.34,0,0,0-2.61-.18,11.9,11.9,0,0,0-4.07.71,9.66,9.66,0,0,0-3.36,2,9.84,9.84,0,0,0-3.1,7.35v22.39H286.35Z"/>
            <path class="cls-1" d="M319,45.66h11.15v11H319Zm.36,17.52H329.8v41.51H319.36Z"/>
            <path class="cls-1" d="M342.36,71.68h-7.08v-8.5h7.08V49.73h10.45V63.18H364v8.5H352.81V89.82A10.24,10.24,0,0,0,354,95.26a4.2,4.2,0,0,0,3.85,1.9,9.21,9.21,0,0,0,3.94-.7,18.19,18.19,0,0,0,2.79-1.69l4.42,6.47a21.23,21.23,0,0,1-6.11,3.67,19.49,19.49,0,0,1-6.72,1.1,16.93,16.93,0,0,1-6.46-1.1,10.7,10.7,0,0,1-4.29-3.14,12.4,12.4,0,0,1-2.35-4.91,26.6,26.6,0,0,1-.71-6.33Z"/>
            <path class="cls-1" d="M398.73,100.79a14.26,14.26,0,0,1-5.13,3.63,18.19,18.19,0,0,1-7.7,1.59,16.84,16.84,0,0,1-5.09-.79,14.25,14.25,0,0,1-4.6-2.44,12.07,12.07,0,0,1-3.36-4.2,13.25,13.25,0,0,1-1.28-6,14.63,14.63,0,0,1,1.32-6.33,13.31,13.31,0,0,1,3.72-4.69,16.6,16.6,0,0,1,5.75-2.87,26.65,26.65,0,0,1,7.44-1c.82,0,1.73,0,2.74,0s2,.07,2.92.13l3.27.18v-1a5.64,5.64,0,0,0-2.48-4.87,10.84,10.84,0,0,0-6.45-1.77,18,18,0,0,0-7.08,1.15A31,31,0,0,0,378,74.07L373.25,67c.82-.59,1.77-1.2,2.83-1.82a22.34,22.34,0,0,1,3.72-1.68,31,31,0,0,1,4.91-1.24,38.62,38.62,0,0,1,6.5-.48,22.32,22.32,0,0,1,7.21,1.1A16.42,16.42,0,0,1,404,66a13.36,13.36,0,0,1,3.54,4.78,14.7,14.7,0,0,1,1.24,6.06v27.88H399Zm0-14.86-3.09-.18c-.83-.06-1.7-.1-2.62-.13s-1.69-.05-2.34-.05q-5,0-7.08,2a6.2,6.2,0,0,0-2,4.56,5,5,0,0,0,1.9,4.16,9,9,0,0,0,5.62,1.5,10.77,10.77,0,0,0,6.63-2.3A9.09,9.09,0,0,0,397.89,93a5.83,5.83,0,0,0,.84-3Z"/>
            <path class="cls-1" d="M422.09,111.41a17.3,17.3,0,0,0,5.36,2.43,26.48,26.48,0,0,0,6.77.76,9.8,9.8,0,0,0,6.81-2.48,8.82,8.82,0,0,0,2.75-6.9V100.7a19.61,19.61,0,0,1-4.65,2.88,16.81,16.81,0,0,1-6.68,1.11,20.15,20.15,0,0,1-8-1.51,17.18,17.18,0,0,1-6-4.2,18.1,18.1,0,0,1-3.77-6.37,24.57,24.57,0,0,1-1.28-8.1,23,23,0,0,1,1.64-8.67,20.43,20.43,0,0,1,4.69-7.08A21.84,21.84,0,0,1,427.14,64a26.11,26.11,0,0,1,9.73-1.72,52.36,52.36,0,0,1,10,.88A56.52,56.52,0,0,1,454.22,65v40.35a18.72,18.72,0,0,1-1.51,7.7,16.12,16.12,0,0,1-4.16,5.67,18,18,0,0,1-6.28,3.49,24.94,24.94,0,0,1-7.88,1.2,49.33,49.33,0,0,1-5.79-.31,34.4,34.4,0,0,1-4.51-.84,20.59,20.59,0,0,1-3.63-1.33,18.91,18.91,0,0,1-3.06-1.86Zm21.69-39.2a14,14,0,0,0-2.57-.66,27.37,27.37,0,0,0-4.16-.23,13.65,13.65,0,0,0-5.58,1.07,12.49,12.49,0,0,0-4.07,2.83,11.59,11.59,0,0,0-2.52,4.11,14.48,14.48,0,0,0-.84,4.91,13.32,13.32,0,0,0,2.39,8.06q2.38,3.27,7.7,3.27,4.78,0,7.21-2c1.62-1.36,2.44-3.51,2.44-6.46Z"/>
            <path class="cls-1" d="M499.52,98.67c-.17.18-.66.66-1.46,1.46a17.14,17.14,0,0,1-3.45,2.52,26.57,26.57,0,0,1-5.75,2.39,28.91,28.91,0,0,1-8.36,1.06,23.46,23.46,0,0,1-9-1.68,20.27,20.27,0,0,1-6.94-4.65,20,20,0,0,1-4.43-7.12,26.23,26.23,0,0,1-1.55-9.2,23.15,23.15,0,0,1,1.55-8.54,20.82,20.82,0,0,1,4.34-6.86,20.28,20.28,0,0,1,6.63-4.6,21.16,21.16,0,0,1,8.54-1.68,20.27,20.27,0,0,1,9.6,2.08,17.7,17.7,0,0,1,6.33,5.44A22.08,22.08,0,0,1,499,76.9a35.5,35.5,0,0,1,1.07,8.67v1.51h-31a8.45,8.45,0,0,0,1,4.15,10.5,10.5,0,0,0,2.66,3.19,12.07,12.07,0,0,0,3.71,2,12.78,12.78,0,0,0,4.12.7,21.61,21.61,0,0,0,5.26-.57,21.18,21.18,0,0,0,3.85-1.33,12.49,12.49,0,0,0,2.61-1.59c.68-.56,1.2-1,1.55-1.37ZM489.35,79.55a8.77,8.77,0,0,0-.62-3.18,8.94,8.94,0,0,0-1.82-2.88,9.37,9.37,0,0,0-3.05-2.12,10.2,10.2,0,0,0-4.25-.84,11.58,11.58,0,0,0-4.55.84,10.7,10.7,0,0,0-3.32,2.12,9.14,9.14,0,0,0-2,2.88,7.78,7.78,0,0,0-.7,3.18Z"/>
          </g>
          <g>
            <path class="cls-1" d="M182.82,118.07h37.07v7.6H191.31v18.06h21.77v7.52H191.31v25.84h-8.49Z"/>
            <path class="cls-1" d="M222,135.94h8V160.1c0,3.89.79,6.71,2.39,8.45s3.89,2.61,6.9,2.61a10.53,10.53,0,0,0,5.71-1.42,11.49,11.49,0,0,0,3.67-3.67,15.09,15.09,0,0,0,2-5.13,30.24,30.24,0,0,0,.57-5.89V135.94h8v38.63q0,1.27.09,2.52h-7.61l-.27-6.11a27,27,0,0,1-1.95,2.3,12.83,12.83,0,0,1-2.83,2.26,18.12,18.12,0,0,1-3.89,1.73,16.64,16.64,0,0,1-5,.7q-8.05,0-11.86-4.64T222,160.63Z"/>
            <path class="cls-1" d="M265.42,177.09V138.55q0-.84-.09-2.61h7.61l.27,6.2c.53-.71,1.18-1.49,2-2.35a13.11,13.11,0,0,1,2.83-2.35,17.28,17.28,0,0,1,3.94-1.77A17,17,0,0,1,287,135q8.06,0,11.95,4.69t3.89,12.74v24.69h-8V153q0-5.75-2.48-8.45a9,9,0,0,0-7-2.7A10.36,10.36,0,0,0,276,147a16.19,16.19,0,0,0-2,5.13,27.43,27.43,0,0,0-.62,5.88v19.12Z"/>
            <path class="cls-1" d="M339.31,171.87c-.29.35-.78.9-1.46,1.63a13.37,13.37,0,0,1-2.7,2.17,19.39,19.39,0,0,1-3.93,1.86,15.91,15.91,0,0,1-5.27.8,17.45,17.45,0,0,1-7.26-1.51,17.24,17.24,0,0,1-5.84-4.24A19.47,19.47,0,0,1,309,165.9a26.83,26.83,0,0,1-1.37-8.81,22.79,22.79,0,0,1,2-10,20.93,20.93,0,0,1,5.17-6.91,20.53,20.53,0,0,1,6.82-3.93A21.63,21.63,0,0,1,328.6,135a21,21,0,0,1,5.8.7,30.55,30.55,0,0,1,4.91,2V118.07h8v56.5c0,.85,0,1.69.08,2.52h-7.78Zm0-26.82a13.38,13.38,0,0,0-4.07-2.21,18,18,0,0,0-6-.88,13.2,13.2,0,0,0-5.35,1.06,12.72,12.72,0,0,0-4.25,3,13.72,13.72,0,0,0-2.83,4.78,18.71,18.71,0,0,0-1,6.37,21.16,21.16,0,0,0,.71,5.53,13.38,13.38,0,0,0,2.17,4.56,10.19,10.19,0,0,0,3.72,3,12,12,0,0,0,5.35,1.11,11.37,11.37,0,0,0,5.31-1.16,10.83,10.83,0,0,0,3.58-2.87,11.71,11.71,0,0,0,2-3.81,12.71,12.71,0,0,0,.66-3.85Z"/>
          </g>
        </g>
        <g>
          <path class="cls-1" d="M137.28,120.7c-3.48,6.91-8.08,10.93-15.09,10.93-7.93,0-12-5.3-13-11.45-4.34,5.12-10,6.85-15.85,5-6.39-2-10.73-8.11-10.73-17.83,0-13.3,7.41-30.17,15.84-37.33l-4-8.77c-.48,1.17-4.07,8.18-5.8,11.08L83.36,70.1S87,62,87.86,60.28C95.94,43.17,105.18,27.47,105.18,17c0-4.35-3-7.35-5.54-7.42C91.71,9.35,79.76,26.6,68,51.91c-9.35,20-14.69,34.33-15.5,44.8l-5.46,2C39.89,88.36,29.35,80.54,16.62,80.54,5.88,80.54,0,85.65,0,89.25c0,3.32,3.32,4.6,5.11,5.11,15.59,4.1,21.73,16.87,26.59,36.05C38.86,158.29,57.27,177,84.1,177,112,177,138.55,152.92,137.28,120.7ZM59.47,137.51l6.62-3.11c6.51,19.21,25.26,24.47,42.61,15.44l2.69,6.57C88.63,169.34,67.46,161.08,59.47,137.51Z"/>
          <path class="cls-1" d="M79,16.87Q71.31,0,66,0c-5.13,0-7.42,6.4-7.42,11.76,0,6.4,2.29,15.35,6.9,27.37A137.23,137.23,0,0,1,79,16.87Z"/>
          <path class="cls-1" d="M89.21,107.4c0,8.7,3.84,12,8.43,11.95,5.83,0,12.09-7.85,16.43-20.65,5.37-13.29,5-24.4-.38-26.87C102.66,66.74,89.21,91,89.21,107.4Zm10,5.69a5.94,5.94,0,1,1,5.94-5.94A5.93,5.93,0,0,1,99.25,113.09Z"/>
          <path class="cls-1" d="M122.19,125.23c8,0,14.57-12,16.36-22.69,1.53-9.2-.76-16.11-5.88-16.11-5.62,0-13.1,11.51-15.91,22.5C115,115.07,114.52,125.23,122.19,125.23ZM124.86,109a5.35,5.35,0,1,1-5.35,5.35A5.35,5.35,0,0,1,124.86,109Z"/>
          <g>
            <path class="cls-1" d="M135.25,172.89a1.93,1.93,0,0,0,.84-.71,2,2,0,0,0,.32-1.19,1.74,1.74,0,0,0-.6-1.4,2.2,2.2,0,0,0-1.52-.53h-2.58v6.2h1.54v-2.15h.44l1.36,2.15h1.73Zm-.57-1.16a1.48,1.48,0,0,1-.81.17h-.62v-1.59h.87a1,1,0,0,1,.6.18.77.77,0,0,1,.22.62A.68.68,0,0,1,134.68,171.73Z"/>
            <path class="cls-1" d="M139.92,169.79a5.86,5.86,0,0,0-1.34-2,6.17,6.17,0,0,0-2.06-1.3A6.72,6.72,0,0,0,134,166a6.79,6.79,0,0,0-2.57.47,6.07,6.07,0,0,0-2.06,1.3,5.86,5.86,0,0,0-1.34,2,7.31,7.31,0,0,0,0,5.21,6,6,0,0,0,1.34,2,6.05,6.05,0,0,0,2.06,1.29,6.79,6.79,0,0,0,2.57.48,6.72,6.72,0,0,0,2.57-.48,6.15,6.15,0,0,0,2.06-1.29,6,6,0,0,0,1.34-2,7.31,7.31,0,0,0,0-5.21Zm-1.84,4.47a4.41,4.41,0,0,1-.93,1.44,4.1,4.1,0,0,1-1.41.94A4.78,4.78,0,0,1,134,177a4.73,4.73,0,0,1-1.8-.32,4,4,0,0,1-1.39-.94,4,4,0,0,1-.92-1.44,5,5,0,0,1-.33-1.86,5.12,5.12,0,0,1,.33-1.86,3.79,3.79,0,0,1,.92-1.44,4,4,0,0,1,1.39-.92,4.73,4.73,0,0,1,1.8-.33,4.79,4.79,0,0,1,1.79.33,4.05,4.05,0,0,1,1.41.92,4.21,4.21,0,0,1,.93,1.44,5.13,5.13,0,0,1,.34,1.86A5,5,0,0,1,138.08,174.26Z"/>
          </g>
        </g>
        <g>
          <path class="cls-1" d="M183.65,0h2.49l5.48,9.37L197.1,0h2.43l.84,18h-2.54l-.6-13.83-5.07,8.51h-1.3l-5-8.4L185.25,18h-2.43Z"/>
          <path class="cls-1" d="M210.73,16.5a4.19,4.19,0,0,1-1.85,1.4,6.2,6.2,0,0,1-2.36.46,6.28,6.28,0,0,1-1.55-.2,4.19,4.19,0,0,1-1.41-.68,3.55,3.55,0,0,1-1-1.21,3.9,3.9,0,0,1-.39-1.83,4.06,4.06,0,0,1,1.41-3.24,6.19,6.19,0,0,1,4.1-1.21l.91,0,.92.05.76.06a3,3,0,0,1,.46,0V9.72a2.3,2.3,0,0,0-.85-2,3.88,3.88,0,0,0-2.31-.61,5.45,5.45,0,0,0-2.27.39,8.39,8.39,0,0,0-1.4.8l-1.14-1.65a6.58,6.58,0,0,1,.78-.54,7.84,7.84,0,0,1,1.08-.5A9.56,9.56,0,0,1,206,5.22a10.65,10.65,0,0,1,1.81-.14,5.76,5.76,0,0,1,3.82,1.17A4.14,4.14,0,0,1,213,9.58v7.79c0,.18,0,.39,0,.64h-2.27Zm0-4.43-.42-.07-.72-.07-.86,0-.89,0a4.5,4.5,0,0,0-1.66.25,2.74,2.74,0,0,0-1,.6,2,2,0,0,0-.5.81,3,3,0,0,0-.14.85,1.82,1.82,0,0,0,.71,1.56,3.15,3.15,0,0,0,1.94.52,3.78,3.78,0,0,0,1.34-.24,4,4,0,0,0,1.12-.65,3.35,3.35,0,0,0,.78-.94,2.26,2.26,0,0,0,.3-1.11Z"/>
          <path class="cls-1" d="M224.58,16.42l-.44.5a4.52,4.52,0,0,1-.82.66,6.48,6.48,0,0,1-1.21.56,4.6,4.6,0,0,1-1.6.25,5.48,5.48,0,0,1-2.22-.46,5.31,5.31,0,0,1-1.78-1.3,6,6,0,0,1-1.17-2,8.06,8.06,0,0,1-.42-2.68,6.92,6.92,0,0,1,.62-3.07,6.35,6.35,0,0,1,3.66-3.31,6.79,6.79,0,0,1,3.89-.16,8.76,8.76,0,0,1,1.49.6V0H227V17.24c0,.26,0,.52,0,.77h-2.38Zm0-8.19a3.92,3.92,0,0,0-1.24-.67,5.43,5.43,0,0,0-1.83-.27,4.17,4.17,0,0,0-1.64.32,4.06,4.06,0,0,0-1.29.92,4.23,4.23,0,0,0-.87,1.46,5.89,5.89,0,0,0-.31,1.94,6.16,6.16,0,0,0,.22,1.69,3.89,3.89,0,0,0,.66,1.39,3,3,0,0,0,1.13.93,3.64,3.64,0,0,0,1.64.34,3.52,3.52,0,0,0,1.62-.35,3.3,3.3,0,0,0,1.09-.88,3.52,3.52,0,0,0,.62-1.16,3.69,3.69,0,0,0,.2-1.17Z"/>
          <path class="cls-1" d="M241,16.17a8.38,8.38,0,0,1-.65.62,5,5,0,0,1-1.12.73,8.19,8.19,0,0,1-1.62.61,8,8,0,0,1-2.12.26,7.21,7.21,0,0,1-2.67-.49,5.74,5.74,0,0,1-2.08-1.38,6.13,6.13,0,0,1-1.34-2.13,7.78,7.78,0,0,1-.47-2.75,7.08,7.08,0,0,1,.46-2.58,6.11,6.11,0,0,1,5.8-4A5.74,5.74,0,0,1,238,5.7a5.53,5.53,0,0,1,1.91,1.64A7.14,7.14,0,0,1,241,9.69a10.87,10.87,0,0,1,.35,2.76h-9.91a3.86,3.86,0,0,0,1.27,2.75A4.45,4.45,0,0,0,234,16a4,4,0,0,0,1.54.3,5.56,5.56,0,0,0,2.61-.54,5.21,5.21,0,0,0,1.49-1.06Zm-2.19-5.53a4,4,0,0,0-1-2.49,3.29,3.29,0,0,0-2.59-1,4,4,0,0,0-1.55.29,3.76,3.76,0,0,0-1.18.79,3.55,3.55,0,0,0-.75,1.12,3.73,3.73,0,0,0-.3,1.31Z"/>
          <path class="cls-1" d="M247.32,23.41V6.25c0-.17,0-.44,0-.8h2.32l.08,1.79a7.81,7.81,0,0,1,.54-.6,4.94,4.94,0,0,1,.88-.67,5.84,5.84,0,0,1,1.23-.56A5.32,5.32,0,0,1,254,5.18a5.58,5.58,0,0,1,2.53.54,5.11,5.11,0,0,1,1.76,1.46,6.13,6.13,0,0,1,1,2.11,9,9,0,0,1,.34,2.51,6.86,6.86,0,0,1-.58,2.94,6.11,6.11,0,0,1-1.51,2A6.41,6.41,0,0,1,255.46,18a7,7,0,0,1-2.26.39,6.59,6.59,0,0,1-2-.26c-.52-.17-1-.36-1.45-.55v5.83Zm2.4-8.13A4.81,4.81,0,0,0,251,16a5.65,5.65,0,0,0,2,.32,4,4,0,0,0,1.68-.34A3.83,3.83,0,0,0,256,15a4.33,4.33,0,0,0,.85-1.42,5.08,5.08,0,0,0,.3-1.78,6.89,6.89,0,0,0-.21-1.73,4.14,4.14,0,0,0-.64-1.43,3.35,3.35,0,0,0-1.15-1,3.78,3.78,0,0,0-1.73-.36,3.47,3.47,0,0,0-2.21.72,3.75,3.75,0,0,0-1.3,2.09,3.93,3.93,0,0,0-.16.93c0,.33,0,.68,0,1Z"/>
          <path class="cls-1" d="M267.62,18.39a6.66,6.66,0,0,1-2.67-.53,6.29,6.29,0,0,1-2.09-1.44,6.81,6.81,0,0,1-1.38-2.12A6.79,6.79,0,0,1,262.86,7,6.29,6.29,0,0,1,265,5.58a6.65,6.65,0,0,1,9.31,6.14,6.52,6.52,0,0,1-.5,2.58,6.66,6.66,0,0,1-1.39,2.12,6.44,6.44,0,0,1-2.1,1.44A6.6,6.6,0,0,1,267.62,18.39Zm0-2.11a3.89,3.89,0,0,0,1.76-.39,4.06,4.06,0,0,0,1.32-1,4.51,4.51,0,0,0,.82-1.45,5.18,5.18,0,0,0,.29-1.69,5,5,0,0,0-.29-1.66,4.44,4.44,0,0,0-.83-1.47,4.1,4.1,0,0,0-1.33-1,3.78,3.78,0,0,0-1.74-.4,3.85,3.85,0,0,0-1.75.4,4.11,4.11,0,0,0-1.33,1,4.55,4.55,0,0,0-.82,1.46,5.12,5.12,0,0,0-.28,1.69,5,5,0,0,0,.28,1.67,4.52,4.52,0,0,0,.84,1.46,4.32,4.32,0,0,0,1.32,1A3.78,3.78,0,0,0,267.62,16.28Z"/>
          <path class="cls-1" d="M276.8,14.85a5.11,5.11,0,0,0,1.62,1.08,5.52,5.52,0,0,0,2.19.4,4.63,4.63,0,0,0,2-.39,1.29,1.29,0,0,0,.81-1.23,1.58,1.58,0,0,0-.17-.74,1.62,1.62,0,0,0-.6-.55,5.39,5.39,0,0,0-1.1-.45c-.46-.13-1-.28-1.72-.44a10.78,10.78,0,0,1-1.44-.43,4.77,4.77,0,0,1-1.29-.72,3.64,3.64,0,0,1-.91-1.08,3,3,0,0,1-.35-1.53,3.1,3.1,0,0,1,.41-1.6A3.68,3.68,0,0,1,277.4,6,5.12,5.12,0,0,1,279,5.29a7,7,0,0,1,1.83-.24,8,8,0,0,1,2.74.42,6.47,6.47,0,0,1,2,1.17l-1.32,1.68a4.81,4.81,0,0,0-1.42-.87,5.28,5.28,0,0,0-2-.35,4,4,0,0,0-1.86.38,1.3,1.3,0,0,0-.7,1.24,1.28,1.28,0,0,0,.93,1.2,15.45,15.45,0,0,0,2.44.74c.6.15,1.15.32,1.66.5a5.1,5.1,0,0,1,1.35.73,3.15,3.15,0,0,1,.92,1.1,3.27,3.27,0,0,1,.34,1.56,3.11,3.11,0,0,1-.43,1.66,3.79,3.79,0,0,1-1.16,1.2,5.32,5.32,0,0,1-1.68.73,7.49,7.49,0,0,1-2,.25,6.93,6.93,0,0,1-5.34-1.92Z"/>
          <path class="cls-1" d="M288.63,14.85a5.11,5.11,0,0,0,1.62,1.08,5.51,5.51,0,0,0,2.18.4,4.68,4.68,0,0,0,2-.39,1.29,1.29,0,0,0,.81-1.23,1.47,1.47,0,0,0-.18-.74,1.51,1.51,0,0,0-.59-.55,5.51,5.51,0,0,0-1.11-.45c-.46-.13-1-.28-1.71-.44a10.91,10.91,0,0,1-1.45-.43,4.86,4.86,0,0,1-1.28-.72A3.67,3.67,0,0,1,288,10.3a3.15,3.15,0,0,1-.35-1.53,3,3,0,0,1,.42-1.6A3.64,3.64,0,0,1,289.22,6a5.29,5.29,0,0,1,1.58-.72,6.89,6.89,0,0,1,1.82-.24,7.93,7.93,0,0,1,2.74.42,6.41,6.41,0,0,1,2,1.17l-1.33,1.68a4.81,4.81,0,0,0-1.42-.87,5.19,5.19,0,0,0-2-.35,4,4,0,0,0-1.86.38,1.3,1.3,0,0,0-.7,1.24,1.28,1.28,0,0,0,.93,1.2,15.12,15.12,0,0,0,2.44.74c.59.15,1.15.32,1.66.5a5.44,5.44,0,0,1,1.35.73,3.26,3.26,0,0,1,.92,1.1,3.39,3.39,0,0,1,.34,1.56,3.12,3.12,0,0,1-.44,1.66,3.59,3.59,0,0,1-1.16,1.2,5.17,5.17,0,0,1-1.67.73,7.55,7.55,0,0,1-2,.25,7,7,0,0,1-5.35-1.92Z"/>
          <path class="cls-1" d="M299.7.49h2.72V3.21H299.7Zm.16,5h2.43V18h-2.43Z"/>
          <path class="cls-1" d="M304.93,0h2.43V6.83a5.23,5.23,0,0,1,.53-.54,4.34,4.34,0,0,1,.82-.55,5.44,5.44,0,0,1,1.12-.42,5.71,5.71,0,0,1,1.42-.16,5.65,5.65,0,0,1,2.47.5A5.2,5.2,0,0,1,315.52,7a6,6,0,0,1,1.09,2.07,8.39,8.39,0,0,1,.37,2.54,6.87,6.87,0,0,1-.52,2.72A6.22,6.22,0,0,1,315,16.5a6.74,6.74,0,0,1-2.23,1.39,8,8,0,0,1-2.86.5,15.08,15.08,0,0,1-2.86-.25,12,12,0,0,1-2.14-.56Zm2.41,15.93c.25.07.56.15.93.23a8.25,8.25,0,0,0,1.63.12,4.93,4.93,0,0,0,1.89-.34,4.32,4.32,0,0,0,1.45-.94,4.24,4.24,0,0,0,.93-1.46,5.28,5.28,0,0,0,.32-1.85,6.92,6.92,0,0,0-.2-1.66,3.84,3.84,0,0,0-.65-1.4,3.31,3.31,0,0,0-1.12-1,3.47,3.47,0,0,0-1.65-.36,3.44,3.44,0,0,0-2.66,1.12,3.4,3.4,0,0,0-.66,1.16,4.49,4.49,0,0,0-.21,1.36Z"/>
          <path class="cls-1" d="M318.73,0h2.43V18h-2.43Z"/>
          <path class="cls-1" d="M335.12,16.17a6.87,6.87,0,0,1-.65.62,5,5,0,0,1-1.12.73,8.19,8.19,0,0,1-1.62.61,8,8,0,0,1-2.12.26,7.21,7.21,0,0,1-2.67-.49,5.83,5.83,0,0,1-2.08-1.38,6.13,6.13,0,0,1-1.34-2.13,7.78,7.78,0,0,1-.47-2.75,7.08,7.08,0,0,1,.46-2.58A6.16,6.16,0,0,1,324.81,7a6.06,6.06,0,0,1,2-1.39,6.18,6.18,0,0,1,2.53-.51,5.76,5.76,0,0,1,2.78.62A5.59,5.59,0,0,1,334,7.34a7.14,7.14,0,0,1,1.09,2.35,10.44,10.44,0,0,1,.35,2.76h-9.9A3.63,3.63,0,0,0,325.9,14a4,4,0,0,0,.9,1.21,4.45,4.45,0,0,0,1.3.81,4,4,0,0,0,1.54.3,5.63,5.63,0,0,0,2.62-.54,5.14,5.14,0,0,0,1.48-1.06Zm-2.19-5.53a4.1,4.1,0,0,0-1-2.49,3.32,3.32,0,0,0-2.59-1,4.05,4.05,0,0,0-1.56.29,3.6,3.6,0,0,0-1.17.79,3.42,3.42,0,0,0-.76,1.12,3.51,3.51,0,0,0-.29,1.31Z"/>
          <path class="cls-1" d="M340,5.45h2.68l2.8,9.59,3-9.59h2.08l3,9.67,2.76-9.67h2.51L354.75,18h-2.4l-2.92-8.78L346.54,18h-2.27Z"/>
          <path class="cls-1" d="M360.15.49h2.73V3.21h-2.73Zm.16,5h2.43V18h-2.43Z"/>
          <path class="cls-1" d="M366.63,7.48h-2.27v-2h2.27V1.35h2.43v4.1h3.67v2h-3.67v6.18a3.4,3.4,0,0,0,.47,2.08,1.65,1.65,0,0,0,1.34.57,2.64,2.64,0,0,0,1.16-.22,3.63,3.63,0,0,0,.92-.65l1.1,1.49a4.64,4.64,0,0,1-3.56,1.43,3.67,3.67,0,0,1-2.93-1.08,5.09,5.09,0,0,1-.93-3.38Z"/>
          <path class="cls-1" d="M375,0h2.4V7.32c.16-.22.36-.45.59-.71a4.51,4.51,0,0,1,.87-.7,5.6,5.6,0,0,1,1.18-.54,5.21,5.21,0,0,1,1.54-.21,4.45,4.45,0,0,1,3.65,1.43,5.91,5.91,0,0,1,1.19,3.89V18H384V10.66a3.74,3.74,0,0,0-.76-2.57,2.73,2.73,0,0,0-2.13-.83,3.13,3.13,0,0,0-2.88,1.56,5,5,0,0,0-.61,1.56,8.93,8.93,0,0,0-.18,1.8V18H375Z"/>
        </g>
      </g>
    </g>
  </g>
</svg>
