<svg xmlns="http://www.w3.org/2000/svg" viewBox="0 0 482.4 96.4">

    <path fill="currentColor" d="M202.6 90.5l-3.5-11.9h-26.4L169 90.5zM194 60.8l-7.5-25.6h-.2l-8 25.6zM251.8 7.4v44.4h-.2L235.2 7.4h-30.4v16.4L229 90.2V52.6l13.8 37.9H276V7.4zM162.1 39H135V28.7h31L173.6 8v-.6h-64.2v83.1H135V58.8h19.9zM26.9 14.8c0-1.9-.8-3-1.9-3.6-.8-.4-1.6-.5-3.1-.5H19v8.5h3c3 0 4.9-1.6 4.9-4.4zm-4.1 7.9H19l-.1 9.2h3.6c3.2 0 5.8-1.3 5.8-4.7 0-3.1-2.7-4.5-5.5-4.5zm54.9 41.4h-.2c1.6-3.5 2.4-7.4 2.4-11.5 0-15.6-12.7-28.3-28.3-28.3-3 0-5.9.5-8.6 1.3.2-1.3.4-2.6.4-4C43.4 9.7 33.7 0 21.7 0S0 9.7 0 21.7s9.7 21.7 21.7 21.7c1.1 0 2.2-.1 3.2-.2-1.1 3-1.7 6.2-1.7 9.5C23.3 68.3 36 81 51.6 81c3.5 0 6.9-.7 10-1.8v1.1c0 8.9 7.2 16.1 16.1 16.1 8.9 0 16.1-7.2 16.1-16.1.1-8.9-7.1-16.2-16.1-16.2zm-54.5-29H11.7v-3.2h2.8l.2-21.2h-2.9V7.4h11c2.9 0 4.7.3 6.4 1.6 1.3.9 2.5 2.9 2.5 5.2 0 3.2-2 6-5.5 6.3v.1c3.7 0 7.2 2.5 7.2 6.7-.2 4.7-3.5 7.8-10.2 7.8zm38 9.1l-.3-5.4H50.1L50 50.3h11.6V55H50l-.1 12.4h4.6v4.4H40.1v-4.4h3.7l.2-28.6h-4.3v-4.4H66l.2 9.8h-5zm21 28.8h-1.9v14.6h1.9v3h-8v-3h1.9V73h-1.9v-3h8v3z"/>
    <path fill="currentColor"  d="M354 62.2c-1.5 3-3.5 4.7-6.5 4.7-3.4 0-5.2-2.3-5.6-4.9-1.9 2.2-4.3 2.9-6.8 2.2-2.7-.9-4.6-3.5-4.6-7.7 0-5.7 3.2-13 6.8-16l-1.7-3.8c-.2.5-1.7 3.5-2.5 4.8l-2.3-1s1.6-3.5 1.9-4.2c3.5-7.3 7.4-14.1 7.4-18.6 0-1.9-1.3-3.2-2.4-3.2-3.4-.1-8.5 7.3-13.6 18.2-4 8.6-6.3 14.7-6.7 19.2l-2.3.9C312 48.3 307.5 45 302 45c-4.6 0-7.1 2.2-7.1 3.7 0 1.4 1.4 2 2.2 2.2 6.7 1.8 9.3 7.2 11.4 15.5 3.1 12 11 20 22.5 20 12.2 0 23.6-10.4 23-24.2zm-33.4 7.2l2.8-1.3c2.8 8.3 10.9 10.5 18.3 6.6l1.2 2.8c-9.8 5.6-18.9 2-22.3-8.1z"/>
    <path fill="currentColor"  d="M329 17.6c-2.2-4.8-4.1-7.2-5.6-7.2-2.2 0-3.2 2.7-3.2 5.1 0 2.7 1 6.6 3 11.8 1.9-4.1 3.9-7.3 5.8-9.7zm4.4 38.9c0 3.7 1.6 5.1 3.6 5.1 2.5 0 5.2-3.4 7.1-8.9 2.3-5.7 2.1-10.5-.2-11.5-4.7-2.2-10.5 8.2-10.5 15.3zm4.3 2.4c-1.4 0-2.6-1.1-2.6-2.6 0-1.4 1.1-2.5 2.6-2.5 1.4 0 2.5 1.1 2.5 2.5 0 1.5-1.1 2.6-2.5 2.6zm9.9 5.2c3.5 0 6.3-5.1 7-9.7.7-4-.3-6.9-2.5-6.9-2.4 0-5.6 4.9-6.8 9.7-.8 2.6-1 6.9 2.3 6.9zm1.1-6.9c1.3 0 2.3 1 2.3 2.3 0 1.3-1 2.3-2.3 2.3-1.3 0-2.3-1-2.3-2.3 0-1.3 1-2.3 2.3-2.3z"/>
    
    <path fill="currentColor"  d="M473.2 65.1c-.2-.2-.4-.3-.6-.4-.2-.1-.5-.1-.8-.1-.3 0-.6 0-.8.1-.2.1-.5.2-.6.4-.2.2-.3.4-.4.6-.1.2-.1.5-.1.8 0 .3 0 .6.1.8.1.2.2.5.4.6.2.2.4.3.6.4.2.1.5.1.8.1.3 0 .6 0 .8-.1.2-.1.5-.2.6-.4.2-.2.3-.4.4-.6.1-.2.1-.5.1-.8 0-.3 0-.6-.1-.8-.1-.2-.3-.4-.4-.6zm-.2 2c-.1.2-.2.3-.3.4-.1.1-.3.2-.4.3-.2.1-.4.1-.6.1-.2 0-.4 0-.6-.1-.2-.1-.3-.2-.4-.3-.1-.1-.2-.3-.3-.4-.1-.2-.1-.4-.1-.6 0-.2 0-.4.1-.6.1-.2.2-.3.3-.4.1-.1.3-.2.4-.3.2-.1.4-.1.6-.1.2 0 .4 0 .6.1.2.1.3.2.4.3.1.1.2.3.3.4.1.2.1.4.1.6 0 .2 0 .4-.1.6zm-106.6-31h4.7V22.8h5.2v-4h-15.2v4h5.3zm15.6-6.8h6.4v6.8h4.5V18.8h-4.5v6.3H382v-6.3h-4.6v17.3h4.6zm26 2.8h-8.4v-3h6.4v-3.7h-6.4v-2.6h7.8v-4H395v17.3h13zm-34.1 19.1l-6.6-9.6h-4.2v17.2h4.6v-9.9l6.8 9.9h4V41.6h-4.6zm11.4-9.6L379 58.8h4.7l1.1-3.6h5.8l1.1 3.6h4.9l-6.1-17.3h-5.2zm.5 10.3l2-6.3 1.9 6.3h-3.9zm7.7-6.3h5.3v13.2h4.7V45.6h5.2v-4h-15.2zm16.3-4h4.6v17.3h-4.6zm21.7 15.1c.8-.8 1.4-1.8 1.9-2.9.4-1.1.7-2.3.7-3.6 0-1.3-.2-2.5-.7-3.6-.4-1.1-1.1-2.1-1.9-2.9-.8-.8-1.7-1.4-2.8-1.9-1.1-.4-2.3-.7-3.6-.7s-2.5.2-3.6.7c-1.1.4-2 1.1-2.8 1.9-.8.8-1.4 1.8-1.9 2.9-.4 1.1-.7 2.3-.7 3.6 0 1.3.2 2.5.7 3.6.4 1.1 1.1 2.1 1.9 2.9.8.8 1.8 1.4 2.8 1.9 1.1.5 2.3.7 3.6.7s2.5-.2 3.6-.7c1-.5 2-1.1 2.8-1.9zm-4.7-2.1c-.5.3-1.1.4-1.8.4s-1.3-.1-1.8-.4c-.5-.2-1-.6-1.3-1-.4-.4-.6-.9-.8-1.5-.2-.6-.3-1.2-.3-1.9s.1-1.3.3-1.9c.2-.6.5-1.1.8-1.5.4-.4.8-.8 1.3-1 .5-.3 1.1-.4 1.8-.4s1.3.1 1.8.4c.5.2 1 .6 1.3 1 .4.4.6.9.8 1.5.2.6.3 1.2.3 1.9s-.1 1.3-.3 1.9c-.2.6-.5 1.1-.8 1.5-.3.4-.8.7-1.3 1zm24.2 4.2V41.6h-4.6v9.6l-6.6-9.6h-4.2v17.2h4.6v-9.9l6.9 9.9zm6.4-3.5h5.8l1.1 3.6h4.9l-6.1-17.3h-5.3l-6.3 17.3h4.7l1.2-3.6zm3-9.7l1.9 6.3h-3.9l2-6.3zm14 9.2V41.6h-4.5v17.2h12.5v-4zm-106.7 9.5h-4.6v17.3h12.6v-4h-8zm23.3 2.1c-.8-.8-1.7-1.4-2.8-1.9-1.1-.4-2.3-.7-3.6-.7-1.3 0-2.5.2-3.6.7-1.1.4-2 1.1-2.8 1.9-.8.8-1.4 1.8-1.9 2.9-.4 1.1-.7 2.3-.7 3.6 0 1.3.2 2.5.7 3.6.4 1.1 1.1 2.1 1.9 2.9.8.8 1.8 1.4 2.8 1.9 1.1.5 2.3.7 3.6.7 1.3 0 2.5-.2 3.6-.7 1.1-.5 2.1-1.1 2.8-1.9.8-.8 1.4-1.8 1.9-2.9.4-1.1.7-2.3.7-3.6 0-1.3-.2-2.5-.7-3.6-.5-1.1-1.1-2.1-1.9-2.9zm-2.5 8.4c-.2.6-.5 1.1-.8 1.5-.4.4-.8.8-1.3 1-.5.3-1.1.4-1.8.4s-1.3-.1-1.8-.4c-.5-.2-1-.6-1.3-1-.4-.4-.6-.9-.8-1.5-.2-.6-.3-1.2-.3-1.9s.1-1.3.3-1.9c.2-.6.5-1.1.8-1.5.4-.4.8-.8 1.3-1 .5-.3 1.1-.4 1.8-.4s1.3.1 1.8.4c.5.2 1 .6 1.3 1 .4.4.6.9.8 1.5.2.6.3 1.2.3 1.9s-.1 1.3-.3 1.9zm4.9-6.5h5.3v13.3h4.6V68.3h5.3v-4h-15.2zm16.1 0h5.3v13.3h4.6V68.3h5.3v-4h-15.2zm20.8 6.4h6.5V71h-6.5v-2.7h7.9v-4h-12.4v17.3h12.9v-4h-8.4zm22.4-1.7c.5-.8.7-1.8.7-3 0-.9-.1-1.8-.4-2.5-.3-.7-.7-1.3-1.2-1.8s-1.2-.8-1.9-1.1c-.8-.2-1.6-.4-2.5-.4h-7.1v17.3h4.5v-5.9h1.9l2.9 5.9h4.9l-3.7-6.6c.7-.4 1.4-1.1 1.9-1.9zm-4.3-1.4c-.4.4-.9.6-1.5.6h-2.2V68h2.2c.7 0 1.2.2 1.5.6.4.4.5.9.5 1.6 0 .5-.2 1-.5 1.4zm12.9-1.1l-3.4-6.2h-5.2l6.1 10.4v6.9h4.6v-6.9l6.1-10.4h-5.1z"/>
</svg>
