<svg xmlns="http://www.w3.org/2000/svg" width="399.838" height="291.156" viewBox="0 0 399.838 291.156">
    <g data-name="Group 5" fill="currentColor">
        <path data-name="Path 1" d="M272.827 254.022H127.01A127.011 127.011 0 01127.01 0h145.817a127.011 127.011 0 110 254.022M127.01 8.477a118.534 118.534 0 000 237.068h145.817a118.534 118.534 0 100-237.068z"/>
        <path data-name="Path 2" d="M242.329 254.022h-85.564a127.011 127.011 0 010-254.022h85.564a127.011 127.011 0 010 254.022M156.765 8.477a118.534 118.534 0 000 237.068h85.564a118.534 118.534 0 000-237.068z"/>
        <path data-name="Path 3" d="M133.676 41.179h8.973v14.845h14.956V41.179h8.973v38.775h-8.973V64.333h-14.956v15.621h-8.973z"/>
        <path data-name="Path 4" d="M188.294 79.953h-8.973V65.219l-12.906-24.04h10.081l6.2 12.353s.61 1.551 1.108 2.881c.5-1.329 1.109-2.881 1.109-2.881l6.2-12.353h10.026l-12.851 24.04z"/>
        <path data-name="Path 5" d="M200.979 41.179h12.518c12.353 0 21.6 6.259 21.6 19.387s-9.25 19.387-21.6 19.387h-12.518zm25.15 19.387c0-7.2-4.487-11.3-11.8-11.3h-4.376v22.6h4.376c7.312 0 11.8-4.1 11.8-11.3"/>
        <path data-name="Path 6" d="M236.209 41.179h28.305v7.865h-19.332v7.035h17.781v7.645h-17.781v8.364h19.5v7.865h-28.473z"/>
        <path data-name="Path 7" d="M134.757 84.572h18.113c9.195 0 15.177 4.265 15.177 12.795s-5.982 12.795-15.177 12.795h-9.14v13.183h-8.973zm8.973 18.167h8.918c4.6 0 6.426-2.269 6.426-5.372s-1.828-5.375-6.426-5.375h-8.918z"/>
        <path data-name="Path 8" d="M176.412 84.571h8.418l15.789 38.774h-9.75l-3.49-9.362h-13.516l-3.49 9.362h-9.749zm.277 21.769h7.864l-2.324-6.314s-.887-2.272-1.608-4.6c-.719 2.326-1.605 4.6-1.605 4.6z"/>
        <path data-name="Path 9" d="M212.861 108.057h-4.819v15.288h-8.971V84.571h16.894c9.251 0 14.513 4.154 14.513 11.41 0 5.927-3.378 9.14-8.419 11.3l9.083 16.064h-9.637zm-4.819-7.312h8.808c3.433 0 4.929-1.828 4.929-4.431s-1.5-4.432-4.929-4.432h-8.808z"/>
        <path data-name="Path 10" d="M250.86 99.194l14.568 24.151h-10.193l-10.634-17.725-3.435 3.6v14.125h-8.973V84.571h8.973v13.294c1.108-1.274 2.215-2.492 2.215-2.492l10.414-10.8h11.188z"/>
        <path data-name="Path 11" d="M95.482 127.964h18.113c9.195 0 15.177 4.265 15.177 12.795s-5.982 12.8-15.177 12.8h-9.14v13.183h-8.973zm8.973 18.168h8.918c4.6 0 6.426-2.27 6.426-5.373s-1.828-5.373-6.426-5.373h-8.918z"/>
        <path data-name="Rectangle 1" d="M129.494 127.964h8.973v38.774h-8.973z"/>
        <path data-name="Path 12" d="M177.629 157.045c-4.487 7.035-9.528 10.469-17.892 10.469-11.742 0-20.161-8.087-20.161-20.163s8.806-20.164 20.383-20.164c8.531 0 14.735 4.322 17.339 10.194l-7.478 5.206c-2.105-4.486-5.54-7.09-10.136-7.09-6.039 0-11.135 4.542-11.135 11.854 0 7.09 5.041 11.854 11.188 11.854 4.986 0 8.089-2.659 10.636-7.367z"/>
        <path data-name="Path 13" d="M175.692 127.964h31.905v7.865h-11.465v30.909h-8.974v-30.909h-11.466z"/>
        <path data-name="Path 14" d="M240.28 151.45c0 9.915-6.924 16.064-16.618 16.064s-16.617-6.149-16.617-16.064v-23.486h8.973v22.378c0 6.037 3.268 8.863 7.644 8.863s7.645-2.826 7.645-8.863v-22.378h8.973z"/>
        <path data-name="Path 15" d="M256.178 151.45h-4.819v15.289h-8.973v-38.775h16.894c9.251 0 14.513 4.154 14.513 11.41 0 5.927-3.378 9.14-8.419 11.3l9.083 16.064h-9.638zm-4.819-7.312h8.808c3.433 0 4.929-1.828 4.929-4.431s-1.5-4.432-4.929-4.432h-8.808z"/>
        <path data-name="Path 16" d="M274.403 127.964h28.305v7.865h-19.331v7.035h17.781v7.645h-17.781v8.364h19.5v7.865h-28.474z"/>
        <path data-name="Path 17" d="M114.536 171.356h8.973v14.845h14.96v-14.845h8.973v38.775h-8.973V194.51h-14.96v15.621h-8.973z"/>
        <path data-name="Path 18" d="M168.932 210.906c-11.854 0-20.383-8.918-20.383-20.163s8.529-20.163 20.383-20.163 20.383 8.918 20.383 20.163-8.528 20.163-20.383 20.163m11.412-20.16c0-7.423-5.151-11.854-11.412-11.854s-11.41 4.431-11.41 11.854 5.15 11.854 11.41 11.854 11.412-4.432 11.412-11.854"/>
        <path data-name="Path 19" d="M223.053 194.842c0 9.915-6.924 16.064-16.618 16.064s-16.617-6.149-16.617-16.064v-23.486h8.973v22.378c0 6.037 3.268 8.863 7.644 8.863s7.645-2.826 7.645-8.863v-22.378h8.973z"/>
        <path data-name="Path 20" d="M242.053 186.646c8.529 1.772 12.408 5.318 12.408 11.8 0 6.7-5.1 12.464-14.569 12.464-10.081 0-15.065-5.318-17-12.574l7.589-3.656c1.383 5.318 3.988 8.364 9.415 8.364 3.49 0 5.762-1.717 5.762-3.988 0-2.99-2.881-4.6-8.7-5.7-7.81-1.5-12.186-5.318-12.186-11.632 0-6.759 5.538-11.136 13.958-11.136 7.645 0 12.353 3.381 15.067 10.139l-6.7 3.987c-1.383-4.1-4.154-6.811-8.529-6.811-3.269 0-5.705 1.438-5.705 3.654 0 2.052 2.215 3.658 9.195 5.1"/>
        <path data-name="Path 21" d="M255.348 171.356h28.305v7.865h-19.336v7.035h17.781v7.645h-17.781v8.364h19.5v7.865h-28.469z"/>
        <path data-name="Path 860" d="M164.949 285.578h10.28v-2.84h-7.04v-3.02h6.42v-2.76h-6.42v-2.54h6.98v-2.84h-10.22zm13.82-7.4c0-.44.46-.68 1.16-.68a2.177 2.177 0 012.04 1.68l2.16-1.26a4.149 4.149 0 00-4.24-2.54c-2.04 0-3.76 1.06-3.76 2.94 0 1.82 1.58 2.8 3.48 3.18 1.28.26 1.9.54 1.9 1.14 0 .5-.54.78-1.26.78a2.788 2.788 0 01-2.5-2.08l-2.3 1.42a4.827 4.827 0 004.76 3.1c2.42 0 4.06-1.44 4.06-3.38 0-1.72-1-2.66-3.38-3.18-1.28-.28-2.12-.58-2.12-1.12zm5.4-.2h1.44v4.52a3.073 3.073 0 003.32 3.36 5.3 5.3 0 002-.34l-.28-2.5a2.559 2.559 0 01-.94.16c-.66 0-1.1-.48-1.1-1.28v-3.92h2.06v-2.32h-2.06v-2.68h-3v2.68h-1.44zm7.02 7.6h3.08v-3.08h-3.08zm8.14-9.24a3.7 3.7 0 002.96-.94v10.18h3.24v-14h-3.08a3.044 3.044 0 01-3.12 1.76zm8.12 4.76a2.993 2.993 0 00-.24 1.14c0 2.16 1.68 3.62 4.6 3.62a5.257 5.257 0 004.98-3.48 11.833 11.833 0 00.8-4.62c0-4.1-2.2-6.46-5.62-6.46-3.06 0-5.32 2.06-5.32 4.78a4.571 4.571 0 004.9 4.66 4.082 4.082 0 003.02-1.1c-.2 2.42-1.3 3.78-2.84 3.78-1.04 0-1.52-.48-1.52-1a1.422 1.422 0 01.14-.64zm4.56-2.8a2.2 2.2 0 01-2.36-2.28 2.351 2.351 0 014.7 0 2.188 2.188 0 01-2.34 2.28zm6.22-1.96a3.7 3.7 0 002.96-.94v10.18h3.24v-14h-3.08a3.044 3.044 0 01-3.12 1.76zm7.16 7.08h6.82v2.16h3.12v-2.16h1.34v-2.8h-1.34v-9.04h-3.24l-6.7 9.24zm6.82-7.64v4.84h-3.54z"/>
    </g>
</svg>
