<svg xmlns="http://www.w3.org/2000/svg" viewBox="0 0 1000 298"><g fill="currentColor"><path d="M381 260h-2c-2-4-5-7-11-7-4 0-7 2-9 4-3 3-4 7-4 11s1 8 4 12c3 3 6 5 9 5 6 0 10-2 12-4l1 2-5 4-8 1a19 19 0 0 1-19-20c0-4 2-9 5-12 4-4 9-6 14-6l10 2h3v8zm39-8a339 339 0 0 0 0 34v1h-6v-9a231 231 0 0 0 0-26v-2h6v2zm67 2-9-1-6 1a253 253 0 0 0 0 33h-7v-34h-6l-9 1v-4h37v4m60-3-4 6-10 13v1l1 15v1h-7v-17l-9-13-4-6v-1h6l1 1a313 313 0 0 0 11 17l7-11 3-6 1-1h3l1 1zm108 9h-2c-2-4-6-7-11-7-4 0-7 2-10 4-2 3-3 7-3 11s1 8 4 12c3 3 6 5 9 5 6 0 9-2 11-4l2 2-5 4-8 1c-5 0-10-2-14-5-4-4-6-9-6-14s2-10 6-13c4-4 9-6 14-6l9 2h4v8zm69 9c0 5-2 10-6 14a20 20 0 0 1-29 0 18 18 0 0 1 1-28c4-4 9-6 14-6s10 2 14 6 6 9 6 14m-6 0c0-5-2-9-5-12s-6-5-10-5-7 2-10 5-4 7-3 12c0 4 1 8 4 12 3 3 7 5 10 5 4 0 7-2 10-5 3-4 4-8 4-12m65-18-1 18v7l-3 7c-2 3-6 5-10 5l-8-1c-3-1-5-2-6-4l-2-8v-6l-1-18h7v8a255 255 0 0 0 0 20c2 4 5 6 10 6l5-2 4-4 1-5v-15l-1-8h5zm61 36h-8l-3-4-2-3-10-14-3-4-1 7 1 18h-4v-36h4a187 187 0 0 0 16 23l6 9v-3a315 315 0 0 0 0-21v-8h4a261 261 0 0 0 0 36m61-27h-2c-2-4-5-7-11-7-4 0-7 2-9 4-3 3-4 7-4 11s1 8 4 12c3 3 6 5 10 5 5 0 9-2 11-4l1 2-5 4-8 1c-5 0-9-2-13-5-4-4-6-9-6-14s2-10 6-13c3-4 8-6 13-6l10 2h3l1 1v7zm40-8a339 339 0 0 0 0 34l-1 1h-6v-9a231 231 0 0 0 0-26v-2h6l1 2zm55 30v3l-1 3-20-1h-3v-37h6v1a261 261 0 0 0 0 33h14l4-2M596 122l-1 6-94 44 8 16c8 12 21 19 37 19 20 0 36-9 49-26 2 4 2 10 0 17a84 84 0 0 1-54 24c-21 0-38-6-51-19a67 67 0 0 1-20-50 67 67 0 0 1 68-69c17 0 32 6 43 17l15 21m-26 10c-1-8-4-16-9-22-6-11-17-16-30-16s-22 6-27 17a91 91 0 0 0-6 53l72-32zm161-10-1 6-94 44 8 16c8 12 21 19 37 19 20 0 36-9 49-26 2 4 2 10 0 17a84 84 0 0 1-54 24c-21 0-38-6-51-19a67 67 0 0 1-20-50 67 67 0 0 1 68-69c17 0 32 6 43 17l15 21m-26 10c-1-8-4-16-9-22-6-11-17-16-30-16s-22 6-27 17a91 91 0 0 0-6 53l72-32zm-329-11 2 88 37 1c17 0 29-1 37-4 6-2 11-6 14-12l4 1-3 14-5 14c-12-2-46-2-102-2h-10l-2-5 2-41 1-54-1-40-1-16 2-4h27l1 4v16l-3 40m503 96-2 4h-24l-2-4v-13a48 48 0 0 1-39 19c-20 0-36-7-50-21a66 66 0 0 1-20-49 68 68 0 0 1 70-68c17 0 30 5 41 16l-2-57 2-4h24l2 4c-2 30-3 34-3 78l3 95m-26-82c-5-27-21-40-48-40-10 0-19 4-26 14a64 64 0 0 0-9 46c2 17 7 31 16 42s18 17 30 17c8 0 15-3 22-7 7-5 12-12 14-21l1-51m146 45c0 14-5 24-16 32-10 8-22 12-36 12s-26-3-36-9l-19-7c0-12 1-21 3-27 8 12 15 20 21 24 10 6 21 9 31 9 7 0 14-2 21-7s11-11 11-18c0-8-3-14-10-19-4-4-13-7-25-10l-29-9c-10-5-17-11-20-21-2-4-3-9-3-13 0-7 3-13 8-19 4-6 10-10 18-13 6-2 15-3 27-3l27 5 23 4c0 14 0 26-2 33-8-12-15-20-21-24-9-5-18-8-29-8-8 0-13 1-17 3-9 5-13 11-13 18 0 5 3 10 10 14 5 4 15 7 28 11l26 8c15 8 22 20 22 34M41 15c-4-1-7 0-8 3 0 2-1 11 11 10 2-2 4-4 6-3 1 1 0 2-2 3l-1 4c8 1 15-4 16-13l8-7H55c-2-3-3-3-6-4l-7 1-5-1 4 7"/><path d="M41 15c-4-1-7 0-8 3 0 2-1 11 11 10 2-2 4-4 6-3 1 1 0 2-2 3l-1 4c8 1 15-4 16-13l8-7H55c-2-3-3-3-6-4l-7 1-5-1c0 3 2 5 4 7zm83 30 4 4v4c-2 0-5 0-7-2l-11-15-3-1-7-4-1 4-3-13-2-2c4 0 7-1 7-2 0-3 1-5 3-6l7 8v6l1-1 3-4 1-2 1 2c4 4 4 11 4 11 0 6 1 10 3 13"/><path d="m124 45 4 4v4c-2 0-5 0-7-2l-11-15-3-1-7-4-1 4-3-13-2-2c4 0 7-1 7-2 0-3 1-5 3-6l7 8v6l1-1 3-4 1-2 1 2c4 4 4 11 4 11 0 6 1 10 3 13zm8 21-3 3h-4l-4-1c1-5 7-8 8-8l3 6"/><path d="m132 66-3 3h-4l-4-1c1-5 7-8 8-8l3 6zm141-51c4 0 7 1 9 3-1 2 0 11-12 10-2-2-4-4-6-3-1 1 0 2 2 4l1 3c-8 1-15-4-16-13-1-3-5-5-8-7h16c2-3 4-3 6-4l7 1 5-1c0 3-1 5-4 7"/><path d="M273 15c4 0 7 1 9 3-1 2 0 11-12 10-2-2-4-4-6-3-1 1 0 2 2 4l1 3c-8 1-15-4-16-13-1-3-5-5-8-7h16c2-3 4-3 6-4l7 1 5-1c0 3-1 5-4 7zm-63-2c2 0 3 2 3 5 1 2 3 2 7 2l-2 3-3 13-1-5-7 5h-2c-4 3-7 9-12 15-3 2-6 2-9 2l-5-1 6-2c1-1 4-2 5-5 2-3 3-7 4-13 0 1-1-6 3-10l1-3 1 2 3 5h1l1-6c1-3 4-6 6-7"/><path d="M210 13c2 0 3 2 3 5 1 2 3 2 7 2l-2 3-3 13-1-5-7 5h-2c-4 3-7 9-12 15-3 2-6 2-9 2l-5-1 6-2c1-1 4-2 5-5 2-3 3-7 4-13 0 1-1-6 3-10l1-3 1 2 3 5h1l1-6c1-3 4-6 6-7zm-31 46c1-1 2-1 6 1 1 0 6 3 7 7l-3 2h-5l-3-3-2-7z"/><path d="M179 59c1-1 2-1 6 1 1 0 6 3 7 7l-3 2h-5l-3-3-2-7zm-44-47 1 1 2 1 4 2 3 1 2 3v3l1 2h2v-3l2-3 5-3h5l3-2-1-2c-2 0-9-3-15-2l-12 1-2 1m19 9c0 2 0 3 2 3 1 0 2-1 2-3l-2-2c-2 0-2 1-2 2m-14 0 2 2 2-2c0-2-1-3-2-3s-2 1-2 3M126 8l22-3 15 2 10 1v2l-5 4v2l-4 1-4 3v3l-1 1-3 1h-3c-3 1-4 3-4 4l-1 1-1-2-3-3-5-2-2-1 1-2-3-4-4-2v-2s1 0 0 0l-5-2-1-2h1"/><path d="m135 12 1 1 2 1 4 2 3 1 2 3v3l1 2h2v-3l2-3 5-3h5l3-2-1-2c-2 0-9-3-15-2l-12 1-2 1zm19 9c0 2 0 3 2 3 1 0 2-1 2-3l-2-2c-2 0-2 1-2 2zm-14 0 2 2 2-2c0-2-1-3-2-3s-2 1-2 3zM126 8l22-3 15 2 10 1v2l-5 4v2l-4 1-4 3v3l-1 1-3 1h-3c-3 1-4 3-4 4l-1 1-1-2-3-3-5-2-2-1 1-2-3-4-4-2v-2s1 0 0 0l-5-2-1-2h1zm9 39v3h2v-3c0-1-1-2-2 0"/><path d="M135 47v3h2v-3c0-1-1-2-2 0zm1 11 1 4h3l-2-4h-2"/><path d="m136 58 1 4h3l-2-4h-2zm5 13c1 3 6 7 10 9 0 1 0-1 0 0l-9-11s-2 0-1 2"/><path d="M141 71c1 3 6 7 10 9 0 1 0-1 0 0l-9-11s-2 0-1 2zm-70 7c0 2 1 3 3 3l2-3c0-2-1-3-3-3s-3 2-2 3m-18 1c0 2 1 3 3 3l2-3c0-2-1-3-3-3-1 0-3 2-2 3m-9-14c0 1 0 4 2 5 6 2 16-1 19 14h1c0-9 5-13 12-15 3 0 5-1 5-2 1-2 0-7 4-6l2 1c1 3-1 4-1 5v2l-3 1-5 4v2c0 2 3 3 2 3l-3 1-4 2-3 1c-4 2-5 5-5 6l-1 1-1-2c-1-1-2-4-5-4l-7-1c-2-3-4-2-4-3l2-2c-1-2-1-3-4-4l-6-3-1-1c1-2 0-1-1-2s0-5 3-5l2 2"/><path d="M71 78c0 2 1 3 3 3l2-3c0-2-1-3-3-3s-3 2-2 3zm-18 1c0 2 1 3 3 3l2-3c0-2-1-3-3-3-1 0-3 2-2 3zm-9-14c0 1 0 4 2 5 6 2 16-1 19 14h1c0-9 5-13 12-15 3 0 5-1 5-2 1-2 0-7 4-6l2 1c1 3-1 4-1 5v2l-3 1-5 4v2c0 2 3 3 2 3l-3 1-4 2-3 1c-4 2-5 5-5 6l-1 1-1-2c-1-1-2-4-5-4l-7-1c-2-3-4-2-4-3l2-2c-1-2-1-3-4-4l-6-3-1-1c1-2 0-1-1-2s0-5 3-5l2 2zm218 14c0-1-1-3-3-3-1 0-3 1-3 3l2 3c2 0 3-1 4-3m-18-1c0-1-1-3-3-3-1 0-3 1-3 3l2 3c2 0 3-1 4-3m27-13s1-2 3-2c3-1 3 4 2 5l-1 2v1l-6 2c-3 2-4 3-4 5l1 2-3 3-7 1c-3 0-4 2-5 4l-1 2c-1 1-1 0-1-1-1-1-1-4-5-6l-4-1-4-2-3-1 3-3-1-2c-1-1-1-3-4-4l-4-1v-3l-1-4 2-2c5 0 4 5 4 7l5 2c8 2 12 6 12 14h1c3-14 14-11 19-13 2-1 2-4 2-5"/><path d="M262 79c0-1-1-3-3-3-1 0-3 1-3 3l2 3c2 0 3-1 4-3zm-18-1c0-1-1-3-3-3-1 0-3 1-3 3l2 3c2 0 3-1 4-3zm27-13s1-2 3-2c3-1 3 4 2 5l-1 2v1l-6 2c-3 2-4 3-4 5l1 2-3 3-7 1c-3 0-4 2-5 4l-1 2c-1 1-1 0-1-1-1-1-1-4-5-6l-4-1-4-2-3-1 3-3-1-2c-1-1-1-3-4-4l-4-1v-3l-1-4 2-2c5 0 4 5 4 7l5 2c8 2 12 6 12 14h1c3-14 14-11 19-13 2-1 2-4 2-5zm36 201-7 10 9 11h-73v-15h-11v-6h82zM82 276h151v21H82v-21zM8 266h82v6H78v15H5l10-11-7-10z"/><path d="m307 266-7 10 9 11h-73v-15h-11v-6h82zM82 276h151v21H82v-21zM8 266h82v6H78v15H5l10-11-7-10zM59 40c0-2 2-3 4-3s4 1 4 3c0 1-2 3-4 3s-4-2-4-3m23 4c0-2 2-3 4-3s4 1 4 3-2 3-4 3l-1-1c-3 4-3 8-3 8v6H44v-6l-4-7h-1c-2 0-4-2-4-3s2-3 4-3 4 1 4 3c9 10 17 11 18 0h3c1 11 6 11 18 1v-1"/><path d="M59 40c0-2 2-3 4-3s4 1 4 3c0 1-2 3-4 3s-4-2-4-3zm23 4c0-2 2-3 4-3s4 1 4 3-2 3-4 3l-1-1c-3 4-3 8-3 8v6H44v-6l-4-7h-1c-2 0-4-2-4-3s2-3 4-3 4 1 4 3c9 10 17 11 18 0h3c1 11 6 11 18 1v-1zm166-4c0-2 2-3 4-3s4 1 4 3c0 1-2 3-4 3s-4-2-4-3m-23 4c0-2 2-3 4-3s4 1 4 3v1c12 10 17 10 17-1h4c1 11 9 10 18 0 0-2 2-3 4-3s4 1 4 3-2 3-4 3h-1l-4 7v6h-38v-6s0-4-3-8l-1 1c-2 0-4-2-4-3"/><path d="M248 40c0-2 2-3 4-3s4 1 4 3c0 1-2 3-4 3s-4-2-4-3zm-23 4c0-2 2-3 4-3s4 1 4 3v1c12 10 17 10 17-1h4c1 11 9 10 18 0 0-2 2-3 4-3s4 1 4 3-2 3-4 3h-1l-4 7v6h-38v-6s0-4-3-8l-1 1c-2 0-4-2-4-3zM24 14c-3 1-2 6-1 7 2 5 7 8 16 8-2-1-6-2-8-8-1-6-3-8-7-7"/><path d="M24 14c-3 1-2 6-1 7 2 5 7 8 16 8-2-1-6-2-8-8-1-6-3-8-7-7zm84-13C97 2 96 5 96 5v9l2 4c1-7 2-5 4-7 3-3 6-8 6-10"/><path d="M108 1C97 2 96 5 96 5v9l2 4c1-7 2-5 4-7 3-3 6-8 6-10zm182 13c3 2 2 6 1 7-2 5-7 8-16 9 2-2 6-3 8-9 1-5 3-8 7-7"/><path d="M290 14c3 2 2 6 1 7-2 5-7 8-16 9 2-2 6-3 8-9 1-5 3-8 7-7zM206 1c11 2 12 4 12 5v9l-2 3c-1-6-2-4-4-7-3-3-6-7-6-10"/><path d="M206 1c11 2 12 4 12 5v9l-2 3c-1-6-2-4-4-7-3-3-6-7-6-10zM87 141l-2 6h-3l2-7c1-1 3-1 3 1"/><path d="m87 141-2 6h-3l2-7c1-1 3-1 3 1zm-7 23c-3 6-9 13-15 17s-1 0-1 0c8-8 10-12 13-19 1-1 4 0 3 2"/><path d="M80 164c-3 6-9 13-15 17s-1 0-1 0c8-8 10-12 13-19 1-1 4 0 3 2zm8-44v6h-3v-6c1-2 3-2 3 0"/><path d="M88 120v6h-3v-6c1-2 3-2 3 0zm-5-19c3 3 3 5 3 7 1 0-2-2-3 0l-3-5c-1 0-1-4 3-2"/><path d="M83 101c3 3 3 5 3 7 1 0-2-2-3 0l-3-5c-1 0-1-4 3-2zm-7 19 1 6h-4v-6c1-2 2-2 3 0"/><path d="m76 120 1 6h-4v-6c1-2 2-2 3 0zm-8-18 5 6c1 0-4-3-5 1 0-3-1-4-3-5 0 0-1-4 3-2"/><path d="m68 102 5 6c1 0-4-3-5 1 0-3-1-4-3-5 0 0-1-4 3-2zm160 39 2 6h4l-3-7c-1-1-3-1-3 1"/><path d="m228 141 2 6h4l-3-7c-1-1-3-1-3 1zm7 23c3 6 9 13 15 17s1 0 1 0c-8-8-10-12-13-19-1-2-4 0-3 2"/><path d="M235 164c3 6 9 13 15 17s1 0 1 0c-8-8-10-12-13-19-1-2-4 0-3 2zm-8-44v6h3v-6c-1-2-2-2-3 0"/><path d="M227 120v6h3v-6c-1-2-2-2-3 0zm5-19c-3 3-3 5-3 7-1 0 2-2 3 0l3-5c1 0 1-4-3-2"/><path d="M232 101c-3 3-3 5-3 7-1 0 2-2 3 0l3-5c1 0 1-4-3-2zm7 19v6h3v-6c-1-2-2-2-3 0"/><path d="M239 120v6h3v-6c-1-2-2-2-3 0zm8-18-5 6s4-4 5 1c0-3 1-4 3-5 0 0 1-4-3-2"/><path d="m247 102-5 6s4-4 5 1c0-3 1-4 3-5 0 0 1-4-3-2zM59 40c0-2 2-3 4-3s4 1 4 3c0 1-2 3-4 3s-4-2-4-3m23 4c0-2 2-3 4-3s4 1 4 3-2 3-4 3l-1-1c-3 4-3 8-3 8v6H44v-6l-4-7h-1c-2 0-4-2-4-3s2-3 4-3 4 1 4 3c9 10 17 11 18 0h3c1 11 6 11 18 1v-1"/><path d="M59 40c0-2 2-3 4-3s4 1 4 3c0 1-2 3-4 3s-4-2-4-3zm23 4c0-2 2-3 4-3s4 1 4 3-2 3-4 3l-1-1c-3 4-3 8-3 8v6H44v-6l-4-7h-1c-2 0-4-2-4-3s2-3 4-3 4 1 4 3c9 10 17 11 18 0h3c1 11 6 11 18 1v-1z"/><path d="m166 164-2-5-1-1-4-1a7 7 0 0 0-6 10c-5-1-8 1-11 6-8 0-12 4-12 11-3 0-5 3-5 6-4 1-6 3-7 8-6 0-6 9 1 10l4 8 6 8 1 9 1 9c1 2 2 5 5 5 4 0 4-3 3-9v-10c1 0 2 1 2 3l1 19c2 4 3 3 5 4 2 0 4-2 4-5l-1-6v-15l1-8c2-2 2-3 3-7l4-3v-13c-1-3-2-5-1-8l1-2h3c1 0 2 1 2 3v6c0 2 0 6 2 10v2l-2 6 1 6c1 2 2 9 2 19v4h6l3-4v-16l1-1 2 6-1 19c1 2 2 3 5 2l6-7v-18l1-1c3 0 5-1 6-5v-7l-1-5c2-5 2-9-3-14 2-5 0-9-6-12 0-6-3-8-10-8-1-4-4-6-9-5v-3m16-11 9-7 11 8-4-12 9-7h-12l-3-12-4 12h-13l10 7-3 11zm-34 0 9-7 11 8-4-12 9-7h-12l-3-12-4 12h-13l10 7-3 11zm-34 0 10-7 10 8-4-12 10-7h-12l-4-12-4 12h-12l10 7-4 11zm47-47h-5v4l3 2 2-1v-5m51 80v25l3-5c2-3 2-7 0-13l-3-7m-108-1-4 8c-2 6-2 10 0 13l4 6v-27zm44-68h22l-5-2 3 2h-5l-5-3-10 3m-6 0h6l-1-1-5 1M84 79c0-2 2-3 3 0v3c0 5 0 9-2 11-1 1 0 2 1 3 4 2 7 5 9 9 8 21 4 42-11 71-2 5-3 11-2 18v4h11l5-17 3-2h3v-62h36l2-4 11-3v-5l-3-4-3-5-3-4-4-7-2-6-4-9-6 4-8 1c-5-1-9-3-11-6-1-3 0-6 2-10l7 9c3 3 5 4 9 3l6-2-4-11c-6 0-27 0-37-18-5-9-9-19-14-22-4-2-8-2-12 0 3-2 4-4 7-4l7-1c6 2 14 10 14 10l3 12c0 2 3 5 4 6v-7l7 4c4 3 6 8 9 12 3 3 7 4 11 5v-1c-2-10 4-19 7-20v-1c-2 0-3-2-3-4l-1-12h2l1 10c0 3 3 5 4 5h8l2-1-1 3-3 1h-4c-3 0-4 1-5 2l-4 10c-1 4 0 9 1 12l5 11 4 8c1 2 2 2 2 5l8 16c2 3 5 4 9 5l5-1-5-10-2-1v-2l5 1 8 18 6 2-4-14h2l5 14 2 1-3-18c-15-10-21-18-24-22-4-6-5-11-5-16 0-6 2-8 3-9l3-1v2s-2 2-2 8c-2 18 33 40 30 37l-2-5-13-11v-3l13 8v-1l-11-10 1-2 9 6v-1l-8-8 1-3 6 5v-2l-5-6v-5l3 4v-2c-3-5-10-13-13-14l-1-1 2-1 1-1-1-1h-4l-5-1 1-1c2 0 3 0 4-2h-11l-2-2 1-1 2 1h10c2 0 3-2 3-2v-1h-5l4-3 2-3 1-1 1 3c1 2-1 6-2 7l-2 1a193 193 0 0 1 11 16l1 1c2 2 4 4 8 4 6 0 10-2 13-5 3-4 5-9 9-12l7-3v7l4-7 3-12s8-8 14-9h7c3 1 5 2 7 5-4-3-7-3-12-1-5 4-9 14-14 22-10 19-32 18-38 18h-5v1l2 10 6 3c3 0 6-1 9-4l7-9c2 4 3 7 1 10-1 4-5 6-10 6l-8-1-4-2 2 12c2 8 8 16 8 17 1 2-9-1-9 0l2 14-16-4-3-6-2 1c-1 1 0 5 1 5l5 2 2 3 2 2-1-1h39v62h2l3 2 5 17h11v-4c1-7 0-13-2-18-15-29-19-50-11-71 2-4 5-7 9-9 1-1 2-2 1-3-2-2-2-6-2-11v-3c1-3 3-2 3 0 0 5-1 10 1 13 1 2 3 2 5 3h7l3-2c2-1 2 0 1 2l-4 3h-9c-8 0-12 5-13 14-3 12-1 28 6 48 7 13 9 19 9 21l1 13c0 1-1 6 5 11 3 1 5 3 7 7 1 4 2 7 8 11 5 2 11 3 12 1v-6l-4-10c0-2-2-4-4-6-1-1 0-2 1-2l4 2 3 4 13 34 9 3-4-28 3 1 4 27 4 2-6-38c-28-25-42-46-43-65-2-9 1-21 7-23 1 0 2 0 1 1-3 7-5 14-3 22 2 21 18 43 48 67-3-5-4-9-5-13-4-3-11-10-21-22l2-4c4 5 11 10 20 16v-2l-19-18 2-5 15 12-1-3-13-14 2-6 9 9v-4l-8-11 1-9 5 7-2-6c-5-10-17-22-21-25 0-1 1-2 3-2h2c1-1 1-3-1-4s-3-1-6 1c-4 0-6-1-8-3l1-1 7-2v-1h-13c-3 0-4-2-4-5-1-1 0-1 1-1 1 2 3 3 5 3l11-1 4-4-1-1c-3 2-4 1-6 1v-1c6-3 8-7 7-11l1-1c4 6 3 14-1 19v1l1 1c10 12 16 26 21 42 3 14 7 53 12 63 3 6 5 12 9 17l-15-2 4 32-23-7-6-16h-10l-2 1-1 8 4 4 3 1 3 3 3 4 2 2c-1 2-2 3-3 2l-4-2-7-6c-2-1-7-1-12 1-6 2-11 4-14 8l-1-1 1-7 2-3 17-4v-12l-8-9c-1-7-9-10-9-10l-7-3v-1l-8 1c-2 0-3 1-4 3l-1 3-2 3-4 3-1 1v1c-2 7-22 37-54 50-25-10-49-37-53-50l-1-2-4-3c-2-1-2-2-2-3l-2-3c0-2-2-3-3-3l-8-1v1l-7 3s-8 3-10 10c-1 4-4 7-7 9v12l17 4 2 3 1 7-1 1c-3-4-8-6-14-8s-10-2-13-1l-7 6-3 2c-2 1-3 0-3-2l2-2 3-4 3-3 3-1 3-3v-9l-2-1H41l-6 16-23 7 4-32c-3 1-9 3-15 2l8-17c6-10 10-48 13-63 5-16 11-30 21-42l1-1-1-1c-4-5-4-13-1-19l2 1c-1 4 1 8 7 11v1c-2 0-3 1-6-1l-1 1c0 2 2 3 4 4l11 1 5-2h1c0 3-2 5-4 5H48v1l7 2 1 1c-2 2-5 3-9 3-2-2-3-2-5-1s-3 3-1 4h2c2 0 3 1 2 2-4 3-15 14-20 25l-2 6 5-7 1 8-8 12v4l9-10 1 7c-3 4-6 8-13 14v3l14-12 2 5-18 18v2c9-6 16-11 20-16l2 4c-10 12-17 19-22 22 0 4-1 8-4 13 30-24 46-46 48-67 1-8 0-16-3-22-1-1 0-1 1-1 6 2 9 14 7 23-1 19-16 40-43 64l-6 39 4-2 4-27 3-1-4 27 9-2 13-34 3-4 4-2c1 0 2 1 1 2-2 2-4 4-4 6l-4 10v6c1 1 7 1 12-1 6-4 7-7 8-11 2-4 4-6 7-8 6-4 5-9 5-10l1-13c0-2 2-8 9-21 7-20 9-36 6-48-1-9-5-14-13-15l-10 1c-1-1-3-2-3-4v-1l4 2 7-1 5-2c2-3 1-8 1-13"/><path d="m155 183-2 5-1 6 1 4 1 9c0 2-4 2-4 3l-1 6-3 4 1 3v19l2 6-2 3-2-2a125 125 0 0 0-2-21l-3-6-3-3 1-3v-4c3 0 5-1 7-3 3-3 1-13-3-15l-7-1c-3 1-6 2-6 5-1 3 0 4 2 3 2 0 1-1 3-3h6c3 2 3 7 2 9-1 1-3 2-6 1-1 0-2-2-1-3h2l3-1c1-1 0-2-1-3h-5c-2 1-3 4-3 6 0 3 1 5 4 5v3l-3 5h-4c-2-1-3-4-4-8-1-3-2-5-4-6-2 0-3-1-3-2 0-2 2-3 5-2 3-1 3-2 4-5l2-1v-4c0-5 3-4 5-5v-1c0-7 3-9 11-10 3-5 6-6 11-5v12z"/><path d="m155 183-2 5-1 6 1 4 1 9c0 2-4 2-4 3l-1 6-3 4 1 3v19l2 6-2 3-2-2a125 125 0 0 0-2-21l-3-6-3-3 1-3v-4c3 0 5-1 7-3 3-3 1-13-3-15l-7-1c-3 1-6 2-6 5-1 3 0 4 2 3 2 0 1-1 3-3h6c3 2 3 7 2 9-1 1-3 2-6 1-1 0-2-2-1-3h2l3-1c1-1 0-2-1-3h-5c-2 1-3 4-3 6 0 3 1 5 4 5v3l-3 5h-4c-2-1-3-4-4-8-1-3-2-5-4-6-2 0-3-1-3-2 0-2 2-3 5-2 3-1 3-2 4-5l2-1v-4c0-5 3-4 5-5v-1c0-7 3-9 11-10 3-5 6-6 11-5v12z"/><path d="m131 224 4-2 1 1v16l1 1-1 4-1-1-2-3-1-8v-2l-1-6z"/><path d="m131 224 4-2 1 1v16l1 1-1 4-1-1-2-3-1-8v-2l-1-6zm37-32c0-4-2-7-4-9v-12h4l4 4c4 0 7 0 8 3v4l7 5v7l3 4c2 2 2 4-1 6v2c3 5 3 8 3 11-1 2-2 2-4 1v-10c-1-3-4-2-4 1v11l1 5v12l-1 5-3 3v-19l-5-11v-11l3-4c1-2 0-3-2-3-3 2-5 6-4 11v8l-1 2v19l-3 3-1-22c-1-4-2-6 0-9v-4l-1-4c-1-3 0-6 1-9"/><path d="M168 192c0-4-2-7-4-9v-12h4l4 4c4 0 7 0 8 3v4l7 5v7l3 4c2 2 2 4-1 6v2c3 5 3 8 3 11-1 2-2 2-4 1v-10c-1-3-4-2-4 1v11l1 5v12l-1 5-3 3v-19l-5-11v-11l3-4c1-2 0-3-2-3-3 2-5 6-4 11v8l-1 2v19l-3 3-1-22c-1-4-2-6 0-9v-4l-1-4c-1-3 0-6 1-9z"/></g></svg>