<svg xmlns="http://www.w3.org/2000/svg" viewBox="0 0 532.52 283.44">
    <g fill="currentColor">
        <circle cx="412.7" cy="141.49" r="17.37"/>
        <path d="M382.68 141.65c-9.35-.59-15.76-5.19-20.81-10.41-6.79-7-7.92-15.06-7.92-25.21V39.69c0-18.94-9.83-39.69-37.73-39.69h-23.35v.27c8.22 1.1 14 5.39 18.71 10.21 6.78 7 7.92 15.06 7.92 25.21v66.34c0 18.94 9.82 39.69 37.72 39.69-27.9 0-37.72 20.75-37.72 39.69v66.34c0 10.15-1.14 18.21-7.92 25.21-4.67 4.82-10.49 9.11-18.71 10.21v.27h23.35c27.9 0 37.73-20.75 37.73-39.69v-66.34c0-10.15 1.13-18.21 7.92-25.21 5.05-5.22 11.46-9.82 20.81-10.41zm60.03.1c9.34.59 15.76 5.19 20.81 10.41 6.78 7 7.92 15.06 7.92 25.21v66.38c0 18.94 9.82 39.69 37.72 39.69h23.36v-.27c-8.22-1.1-14-5.39-18.71-10.21-6.79-7-7.92-15.06-7.92-25.21v-66.34c0-18.94-9.83-39.69-37.72-39.69 27.89 0 37.72-20.75 37.72-39.69V35.69c0-10.15 1.13-18.21 7.92-25.21 4.66-4.82 10.49-9.11 18.71-10.21V0h-23.36c-27.9 0-37.72 20.75-37.72 39.69v66.34c0 10.15-1.14 18.21-7.92 25.21-5 5.22-11.47 9.82-20.81 10.41zM98.98 50.42h8v40.74h22.14v7.59H98.98zm50 13.62c9.6 0 16.42 7 16.07 19.49h-25.2c.34 6.88 5.79 9.2 11.31 9.2a20.21 20.21 0 0010.9-2.93v7.29a25.57 25.57 0 01-11.72 2.38c-10 0-18.33-5.86-18.33-17.71.02-11.11 7.24-17.72 16.97-17.72zm-9 14.11h17.17c-.61-5.18-3.81-8-8.24-8-3.87.03-8.02 2.34-8.93 8zm47.17-14.11c9.6 0 16.42 7 16.08 19.49h-25.25c.34 6.88 5.79 9.2 11.31 9.2a20.21 20.21 0 0010.9-2.93v7.29a25.57 25.57 0 01-11.72 2.38c-10 0-18.33-5.86-18.33-17.71.04-11.11 7.27-17.72 17.01-17.72zm-9 14.11h17.17c-.61-5.18-3.81-8-8.24-8-3.88.03-8.04 2.34-8.93 8zm47.08-14.11a13.7 13.7 0 019.95 3.82V50.42h7.49v48.33h-7.49v-3.2a13.46 13.46 0 01-9.95 3.88c-10.08 0-17-8.11-17-17.71s6.92-17.68 17-17.68zm9.95 11.52a10.38 10.38 0 00-9.06-4.7c-6 0-10.15 4.9-10.15 10.9s4.15 10.9 10.15 10.9a10.3 10.3 0 009.06-4.77zm27.93 23.91c-4.36 0-8.72-.75-11.72-2.38v-7.34a22 22 0 0011.38 3.27c4 0 6.41-1.36 6.41-3.75 0-2-1.5-3.27-5.18-4.22l-3.48-.82c-6.33-1.43-9.67-4.77-9.67-10.35 0-6.14 5.38-9.82 13.28-9.82a23.84 23.84 0 019.61 1.84v7a19.45 19.45 0 00-9.4-2.52c-3.68 0-6.2.89-6.2 3.27-.07 1.91 1.29 2.93 4.63 3.82l3.41.88c7.15 1.57 10.42 4.77 10.42 10.56 0 6.68-4.9 10.56-13.49 10.56zM2.72 113.6h8v20h23.92v-20h8v48.37h-8v-20.78H10.69v20.78h-8zm65 13.62c9.6 0 16.42 7 16.08 19.49H58.59c.34 6.88 5.79 9.2 11.31 9.2a20.21 20.21 0 0010.9-2.93v7.29a25.57 25.57 0 01-11.72 2.38c-10 0-18.33-5.86-18.33-17.71 0-11.11 7.23-17.72 16.97-17.72zm-9 14.11h17.17c-.61-5.18-3.81-8-8.24-8-3.88.03-8.04 2.34-8.93 8zm32.5-13.43h7.5v4.5c1.29-2.66 4.77-4.84 9.26-4.84h2.66v7.36h-3.2c-4.57 0-7.22 1.64-8.72 5.18v21.87h-7.5zm29.5-5.72a5 5 0 115-5 5 5 0 01-5 5zm-3.74 5.72h7.5v34.07h-7.5zm21.39 6.68h-7.77v-6.68h7.77v-8.1l7.49-4.36v12.46h10.43v6.68h-10.43v27.39h-7.49zm37.61 28.07c-10.08 0-17-8.11-17-17.71s6.88-17.72 17-17.72a13.68 13.68 0 019.95 3.82v-3.14h7.5v34.07h-7.5v-3.22a13.45 13.45 0 01-9.95 3.9zm.89-6.81a10.3 10.3 0 009.06-4.77v-12.32a10.38 10.38 0 00-9.06-4.7c-6 0-10.15 4.9-10.15 10.9s4.14 10.89 10.14 10.89zm40.53 19.35a33.34 33.34 0 01-11.59-1.77v-7.43a25.78 25.78 0 0011.31 2.38c6.07 0 11.18-3 11.18-9.87v-1.3c-2.32 2.52-6 3.88-10.15 3.88a16.93 16.93 0 110-33.86c4.15 0 7.83 1.37 10.15 3.82v-3.14h7.49v30.85c0 11.4-8.11 16.44-18.39 16.44zm1.7-21a10.69 10.69 0 009.2-4.63v-10.81a10.73 10.73 0 00-9.2-4.7c-5.79 0-10.22 4.15-10.15 10.08a9.74 9.74 0 0010.15 10.07zm41.42-26.97c9.61 0 16.42 7 16.08 19.49h-25.21c.34 6.88 5.79 9.2 11.31 9.2a20.21 20.21 0 0010.9-2.93v7.29a25.53 25.53 0 01-11.71 2.38c-10 0-18.33-5.86-18.33-17.71 0-11.11 7.22-17.72 16.96-17.72zm-9 14.11h17.17c-.62-5.18-3.82-8-8.25-8-3.87.03-8.03 2.34-8.91 8zM14.03 187.21H-.02v-7.63h36.11v7.63H21.98v40.74h-8zm27.87-7.63h7.49v17.92a12.62 12.62 0 0110-4.29c8.17 0 13.35 5.58 13.35 14.37v20.37h-7.5v-19.14c0-5.38-2.72-8.79-7.49-8.79a8.94 8.94 0 00-8.38 5.38v22.55h-7.49zm55.08 13.63c9.61 0 16.42 7 16.08 19.48H87.88c.34 6.88 5.8 9.2 11.31 9.2a20.21 20.21 0 0010.9-2.93v7.29a25.53 25.53 0 01-11.71 2.38c-10 0-18.33-5.86-18.33-17.71 0-11.11 7.22-17.71 16.93-17.71zm-9 14.1h17.17c-.61-5.18-3.82-8-8.24-8-3.85.03-8 2.34-8.93 8zm47.12 21.32c-10.09 0-17-8.1-17-17.71s6.88-17.71 17-17.71a13.69 13.69 0 019.95 3.81v-3.13h7.49v34.06h-7.49v-3.2a13.46 13.46 0 01-9.95 3.88zm.88-6.81a10.31 10.31 0 009.07-4.77v-12.3a10.41 10.41 0 00-9.07-4.7c-6 0-10.15 4.9-10.15 10.9s4.15 10.87 10.15 10.87zm30.53-21.26h-7.77v-6.67h7.77v-8.14l7.49-4.36v12.47h10.42v6.67h-10.44v27.42h-7.49zm23.84-6.67h7.49v4.49c1.3-2.65 4.77-4.83 9.27-4.83h2.66v7.35h-3.21c-4.56 0-7.22 1.64-8.72 5.18v21.87h-7.49zm38.97-.68c9.61 0 16.42 7 16.08 19.48h-25.21c.34 6.88 5.79 9.2 11.31 9.2a20.21 20.21 0 0010.9-2.93v7.29a25.57 25.57 0 01-11.72 2.38c-10 0-18.32-5.86-18.32-17.71 0-11.11 7.22-17.71 16.96-17.71zm-9 14.1h17.17c-.62-5.18-3.82-8-8.25-8-3.87.03-8.03 2.34-8.91 8zm42.79 21.32c-4.36 0-8.72-.75-11.72-2.38v-7.36a22 22 0 0011.38 3.27c4 0 6.41-1.36 6.41-3.75 0-2-1.5-3.27-5.18-4.22l-3.48-.82c-6.33-1.43-9.67-4.77-9.67-10.35 0-6.14 5.38-9.81 13.28-9.81a23.85 23.85 0 019.61 1.83v7a19.45 19.45 0 00-9.4-2.52c-3.68 0-6.2.89-6.2 3.27-.07 1.91 1.29 2.93 4.63 3.82l3.41.88c7.15 1.57 10.42 4.77 10.42 10.56 0 6.7-4.9 10.58-13.49 10.58z"/>
    </g>
</svg>
