<svg xmlns="http://www.w3.org/2000/svg" width="226.8" height="69.5" viewBox="0 0 226.8 69.5">
    <path fill="currentColor" d="M34.7 5.7c16 0 29 13 29 29s-13 29-29 29-29-13-29-29 13-29 29-29m0-5.7C15.6 0 0 15.6 0 34.7s15.6 34.7 34.7 34.7c19.2 0 34.7-15.6 34.7-34.7S53.9 0 34.7 0z"/>
    <path fill="currentColor" d="M14.1 23.1h19.7v6H20.9v4.2h11.7V39H20.9v8.8h-6.8V23.1zM35.2 23.1h11.7c3.8 0 6.4 1 8 2.6 1.4 1.4 2.2 3.3 2.2 5.7v.1c0 3.8-2 6.3-5.1 7.6l5.9 8.6H50l-5-7.5h-3v7.5h-6.8V23.1zm11.4 11.8c2.3 0 3.7-1.1 3.7-2.9v-.1c0-2-1.4-3-3.7-3H42v6h4.6zM82.9 24.2h10.7v1H84v6.2h8.6v1H84v6.9h-1.1V24.2zM95.8 33v-8.9h1.1v8.8c0 3.6 1.9 5.6 5.1 5.6 3.1 0 5.1-1.9 5.1-5.5v-8.9h1.1v8.7c0 4.4-2.5 6.7-6.2 6.7-3.6.1-6.2-2.2-6.2-6.5zM111.5 24.2h1.1L123 37.4V24.2h1.1v15.2h-.8l-10.7-13.5v13.5h-1.1V24.2zM127.5 24.2h5.1c4.8 0 8.1 3.3 8.1 7.6s-3.3 7.6-8.1 7.6h-5.1V24.2zm5.1 14.1c4.2 0 6.9-2.9 6.9-6.5s-2.7-6.6-6.9-6.6h-3.9v13.1h3.9zM143.4 24.2h6.4c1.9 0 3.4.6 4.3 1.5.7.7 1.2 1.7 1.2 2.8 0 2.5-1.9 4-4.4 4.3l5 6.5h-1.4l-4.8-6.3h-5v6.3h-1.1V24.2zm6.3 7.8c2.5 0 4.4-1.3 4.4-3.5 0-2-1.6-3.3-4.4-3.3h-5.2V32h5.2zM163.8 24.1h1.1l7.1 15.3h-1.2l-1.9-4.3h-9l-1.9 4.3h-1.2l7-15.3zm4.5 10l-4-8.8-4 8.8h8zM174.3 24.2h1.1v15.2h-1.1V24.2zM178 37.1l.7-.8c1.7 1.5 3.2 2.3 5.4 2.3 2.3 0 3.8-1.3 3.8-3 0-1.6-.8-2.5-4.3-3.2-3.6-.7-5.1-2-5.1-4.3s2.1-4 4.9-4c2.2 0 3.7.6 5.2 1.8l-.7.9c-1.4-1.2-2.9-1.7-4.5-1.7-2.2 0-3.7 1.3-3.7 2.9 0 1.6.8 2.6 4.4 3.3 3.5.7 5 2 5 4.2 0 2.5-2.1 4.1-5 4.1-2.4 0-4.3-.8-6.1-2.5zM191.9 24.2h1.1v15.2h-1.1V24.2zM196.6 24.2h1.1l10.5 13.2V24.2h1.1v15.2h-.8l-10.7-13.5v13.5h-1.1V24.2zM212 31.8c0-4.1 3-7.9 7.5-7.9 2.5 0 4 .7 5.6 2l-.7.8c-1.2-1-2.6-1.8-4.9-1.8-3.7 0-6.3 3.1-6.3 6.8 0 3.9 2.5 6.9 6.5 6.9 1.9 0 3.7-.8 4.8-1.7v-4.4h-5.1v-1h6.2v5.9c-1.4 1.2-3.5 2.3-6 2.3-4.7-.1-7.6-3.6-7.6-7.9zM82.7 43.2h7.8c2.2 0 3.8.6 5 1.7.9.9 1.5 2.3 1.5 3.9 0 2.7-1.5 4.5-3.6 5.3l4.2 6.1H93l-3.6-5.4h-2.9v5.4h-3.7v-17zm7.5 8.2c1.8 0 2.9-1 2.9-2.4 0-1.6-1.1-2.4-2.9-2.4h-3.7v4.9h3.7zM99.1 43.2h12.8v3.3h-9.1V50h8v3.3h-8v3.6h9.2v3.3H99v-17zM113.4 51.7c0-4.9 3.8-8.9 8.9-8.9 3.1 0 4.9.8 6.7 2.3l-2.4 2.8c-1.3-1.1-2.5-1.7-4.5-1.7-2.7 0-4.9 2.4-4.9 5.3 0 3.1 2.1 5.4 5.2 5.4 1.4 0 2.6-.3 3.5-1v-2.4h-3.8v-3.2h7.4v7.4c-1.8 1.5-4.2 2.7-7.3 2.7-5.2.1-8.8-3.6-8.8-8.7zM131.7 52.9v-9.7h3.7v9.6c0 2.8 1.4 4.2 3.7 4.2s3.7-1.4 3.7-4.1v-9.8h3.7v9.6c0 5.2-2.9 7.7-7.5 7.7-4.5.1-7.3-2.5-7.3-7.5zM149.1 43.2h3.7v13.6h8.5v3.4h-12.2v-17zM168.8 43h3.5l7.3 17.2h-3.9l-1.6-3.8h-7.2l-1.6 3.8h-3.8l7.3-17.2zm4 10.1l-2.3-5.5-2.3 5.5h4.6zM182.8 46.6h-5.2v-3.5h14.1v3.5h-5.2v13.6h-3.7V46.6zM191.8 51.7c0-4.9 3.8-8.9 9.1-8.9s9 3.9 9 8.8c0 4.8-3.8 8.8-9.1 8.8-5.2.1-9-3.8-9-8.7zm14.2 0c0-3-2.1-5.4-5.2-5.4-3 0-5.1 2.4-5.1 5.3s2.1 5.4 5.2 5.4c3 0 5.1-2.4 5.1-5.3zM212.1 43.2h7.8c2.2 0 3.8.6 5 1.7.9.9 1.5 2.3 1.5 3.9 0 2.7-1.5 4.5-3.7 5.3l4.2 6.1h-4.4l-3.7-5.4h-2.9v5.4h-3.7v-17zm7.5 8.2c1.8 0 2.9-1 2.9-2.4 0-1.6-1.1-2.4-2.9-2.4h-3.7v4.9h3.7zM82.9 7.4h4c1.1 0 2 .3 2.6.9.5.5.8 1.2.8 2 0 1.5-.9 2.4-2.2 2.8l2.5 3.4h-1.9l-2.2-3.2h-2v3.2h-1.6V7.4zm3.9 4.5c1.1 0 1.9-.6 1.9-1.5 0-1-.7-1.5-1.9-1.5h-2.3v3h2.3zM91.6 13.1c0-2 1.4-3.6 3.3-3.6 2.2 0 3.3 1.7 3.3 3.7v.4h-5c.2 1.1 1 1.7 2 1.7.8 0 1.3-.3 1.9-.8l.9.8c-.6.8-1.5 1.3-2.8 1.3-2.1 0-3.6-1.4-3.6-3.5zm5.1-.5c-.1-1-.7-1.8-1.7-1.8s-1.6.7-1.8 1.8h3.5zM99.8 17.7l.6-1.2c.7.5 1.5.7 2.4.7 1.4 0 2.2-.7 2.2-2.1v-.5c-.6.7-1.3 1.3-2.4 1.3-1.6 0-3.1-1.2-3.1-3.2s1.5-3.2 3.1-3.2c1.2 0 1.9.5 2.4 1.2v-1h1.6v5.4c0 1.2-.3 2-.9 2.6-.6.6-1.6.9-2.8.9-1.2 0-2.3-.3-3.1-.9zm5.2-5c0-1.1-.9-1.9-2-1.9s-1.9.8-1.9 1.9c0 1.1.9 1.9 1.9 1.9 1 0 2-.8 2-1.9zM108.5 7.1h1.7v1.5h-1.7V7.1zm.1 2.5h1.6v6.9h-1.6V9.6zM111.6 15.6l.7-1.1c.8.6 1.5.8 2.2.8.7 0 1.1-.3 1.1-.7 0-.5-.7-.7-1.5-1-1-.3-2.1-.7-2.1-2s1.1-2.1 2.4-2.1c.9 0 1.8.3 2.5.8l-.6 1.1c-.7-.4-1.4-.6-1.9-.6-.6 0-1 .3-1 .7 0 .5.7.7 1.5 1 1 .3 2.1.8 2.1 2 0 1.4-1.1 2.2-2.5 2.2-1-.1-2.1-.5-2.9-1.1zM118.9 14.6V11h-.9V9.6h.9V7.7h1.6v1.9h1.8V11h-1.8v3.4c0 .6.3.9.8.9.4 0 .7-.1 1-.2v1.3c-.4.2-.8.4-1.4.4-1.1-.2-2-.7-2-2.2zM123.4 13.1c0-2 1.4-3.6 3.3-3.6 2.2 0 3.3 1.7 3.3 3.7v.4h-5c.2 1.1 1 1.7 2 1.7.8 0 1.3-.3 1.9-.8l.9.8c-.6.8-1.5 1.3-2.8 1.3-2.1 0-3.6-1.4-3.6-3.5zm5.1-.5c-.1-1-.7-1.8-1.7-1.8s-1.6.7-1.8 1.8h3.5zM131.6 9.6h1.6v1.5c.4-1 1.2-1.7 2.4-1.7v1.7h-.1c-1.4 0-2.3.9-2.3 2.7v2.6h-1.6V9.6zM136.5 13.1c0-2 1.4-3.6 3.3-3.6 2.2 0 3.3 1.7 3.3 3.7v.4h-5c.2 1.1 1 1.7 2 1.7.8 0 1.3-.3 1.9-.8l.9.8c-.6.8-1.5 1.3-2.8 1.3-2.1 0-3.6-1.4-3.6-3.5zm5.1-.5c-.1-1-.7-1.8-1.7-1.8s-1.6.7-1.8 1.8h3.5zM144.4 13c0-2.3 1.5-3.6 3.2-3.6 1.1 0 1.8.6 2.3 1.2V7h1.6v9.5h-1.6v-1.1c-.5.7-1.2 1.3-2.3 1.3-1.7-.1-3.2-1.4-3.2-3.7zm5.5 0c0-1.3-.9-2.2-2-2.2s-2 .8-2 2.2c0 1.3.9 2.2 2 2.2s2-.8 2-2.2zM156.8 9.6h1.6l1.4 4.7 1.5-4.7h1.3l1.5 4.7 1.4-4.7h1.6l-2.2 6.9h-1.4l-1.5-4.7-1.5 4.7H159l-2.2-6.9zM168.4 7.1h1.7v1.5h-1.7V7.1zm.1 2.5h1.6v6.9h-1.6V9.6zM172.3 14.6V11h-.9V9.6h.9V7.7h1.6v1.9h1.8V11h-1.8v3.4c0 .6.3.9.8.9.4 0 .7-.1 1-.2v1.3c-.4.2-.8.4-1.4.4-1.2-.2-2-.7-2-2.2zM177.3 7h1.6v3.7c.4-.6 1.1-1.2 2.1-1.2 1.5 0 2.4 1 2.4 2.6v4.4h-1.6v-3.9c0-1.1-.5-1.7-1.5-1.7-.9 0-1.5.6-1.5 1.7v3.9h-1.6V7z"/>
</svg>
