<svg xmlns="http://www.w3.org/2000/svg" version="1.1" viewBox="0 0 1500 433">
<g fill="currentColor">
    <path d="M164 31c43.8-.8 107.7-8.2 117 49-1.7 41.9 3.3 92.9-33 122 14.5-.4 84.6 31.5 52 41-4.9 2-9.3 3.9-12-2-18.2-36.2-118.4-28.6-57 10 37.7 21.7 94 .5 121-29 2.3-36.9-13.6-111.1-63-99 .8-18.5-4-32.4 22-29 31.9-.7 53.1 27.1 60 56 20.7 43.4 22.4 106.4-37 116-35.3 11.2-73.6 21.7-107 0 7 17.3-2.1 86.4-24 61-5.7-5.6-1.6-9.1 1-14 36.6-83.3-49.2-108.2-25-6 16.1 20.5 35.1 57.8 62 63 17.8 1.6 31.3-13.6 45-23 26.6-14.7 48.2-37.8 29-67 8.2-2.8 18.4-5.6 27-6 9.2 15.7 13.5 34.1 8 52-11.3 30.7-80.6 82.1-114 74-27.3-4.3-42.8-32.3-55-51-14.2-23.4-28.3-52.4-21-83-15.3 12.4-84.3 25.6-65-4l5-4c31.4 9.8 66.1-3.3 80-33-46-29.1-87.7 17.5-107 57-23.4 28 5.9 51.8 29 66 59.7 54.5 67.2-14.3 78 15 24.2 28.1-39.3 44.7-60 35-48.5-25.1-121.9-79.3-65-135 21.7-28.4 47-57.8 85-61-20-14.5-31.3-40.5-30-65l20 5c-3.1 64.7 92.6 96.1 40 11-32.6-23.4-111.8-56.9-122 4-4.2 22-21.1 43.1-12 66 71.6 58.5-85.6 58-15-86 7.7-27.7 32.9-42.7 60-44 43.3 6.2 95.1 37 113 66 12-20 28-38 51-45 3.3-3.3 4 24 1 22-32.6 8.9-48.4 41.1-45 73 31.8-5.1 58-33.8 56-67 .2-37.4.4-90.5-52-80-20.8 1.1-41.4-3.8-60 6-10.1 8-11.5 20.2-13 32-56.5-8-5.2-73.8 32-69ZM432 63c22-5.7 19.7 19.6 24 35 3.3-11 8.6-23.4 6-35h14c12.4 43.3 7.6 41.5 19 0h15c-2.6 15.8-7.7 34-13 49-3.8 15.9-3 11.5-18 12l-8-28c-4.3 10.6-3.3 33.2-20 28-8.9-4.4-8-24.2-13-34-2.3-7.6-5-19.1-6-27ZM922 313h15c4.9 10.5 6.1 22.9 9 34 12.3-14.1-3.5-39.1 20-34l10 35c.5-2.8 5.9-23.6 5-26 3.7-14.2 6.8-7.6 19-9l-5 22c-3.2 11.6-8.2 23.3-10 35-.3 5.5-8.5 3.8-12 4-8.6 3.3-8.4-30.7-13-25-1.3 8.1-3.9 17.9-8 25-25.2 4-21.2-43-30-61ZM863 63c6.8.2 9.4 1.6 8 9 .2 100.6 0 201.4 0 302-18.8 16.3-3.2-311.1-8-311ZM938 231l7 10c0 1.8-.5 3.6 2 3l2 6c2.5-.6 2 1.3 2 3 1.9-.7 3.2 1.7 4 3 4.5-6.7 11.3-15.4 14-23 26.5-15.6 11.3 39.9 15 55 .7 4.9-8.6 2.5-11 3-8.3 2.7-2-34.6-6-29-2.6 4.1-6.7 10.8-9 15-3.6 5.4-8.2-.9-9-5-13.3-18.6-5.3 4.6-9 15 1.5 6.6-11 3.2-14 4v-60h12ZM926 147c19.8-2.2 58.2.2 39 29 .7.6 2.3 2.3 3 3 19.6 27-24.1 33.1-42 29v-61Zm15 13c-.3 7.8-4.1 12.6 7 11 5.8.4 7.9-4 7-9-2.3-3.6-10.4-1.5-14-2Zm0 23c-3.9 14.6 4.3 13.9 16 10 2.7-12-8.1-10.1-16-10ZM545 245c.5 6 11.2-3.7 17 0 2.4 1.6 6.5 5.6 9 2 30.5-13.7 24 26.1 24 44h-14c.2-8.9-1.1-18.1-1-27 .4-6.9-5.5-4.8-10-5v32c-5.1-1.1-16.8 3.7-14-6-2.6-9.2 4.7-29.5-10-26-2.4 14.7 8.9 38.8-15 31-3-14.6 9.6-29.2 0-43 4-.9 9.8-2.6 14-2ZM617 225c1.9 3-4.9 30.8 5 20 35.8-8.5 30.3 60.8-5 45 0 1.7-13.1.8-14 1-2.2-19.5-.4-39.4-1-59l1-5c4.1-.8 9.7-2.6 14-2Zm0 35c.3 7-2.9 23.5 10 18 8.7-9.3 3.2-24.8-10-18ZM809 225c-.7 21.9 1.6 44.3-1 66h-10c-3.8.9-4.4-3.8-7 0-32.1 12.5-36.3-51.8-4-46 16.2 6.9-6.5-23.2 22-20Zm-26 35c-3 4-3 7-3 12 2.1 7.1 7.4 8.9 14 5 .1-7.1 2.2-27.5-11-17ZM1069 142l1 22c27.2-16.4 39.4 31.2 17 43-5 1.3-12.2 1.1-17-1-.7 3.3-12.9 1.6-15 2v-64l14-2Zm0 34c.6 7.4-3.6 23.9 10 19 8.8-6.7 3.1-27.6-10-19ZM455 313c21.1-3.1 22.8 39.6 33 55 7.5 10.5-9.7 4.5-14 6-2.7-16.2-12.1-9.9-24-11-.3 1.5-2 9.9-3 11-25.5 4.6-10.2-14.8-5-29 3-7.3 5.4-15 9-22 .4-3.1-1.8-10.9 4-10Zm5 22c-3.1 9.8-11.3 18.3 5 16-1.5-3.2-2.9-14.7-5-16ZM665 142c.5 36.7.6 10.5 21 22 7.3 11.5 5.2 29.8 5 44-5.2-1.1-16.8 3.8-14-6-2-9.2 4.2-31.3-11-26-.6 10.6 0 21.6-2 32-2.9 0-11.4.3-14-1v-63c3.8-1.6 10.8-2.5 15-2ZM591 308c2.1 4.6-4 28.8 7 19 28.5-3.7 15 30.7 19 47h-14c-.2-10.5-.4-21.6-2-32h-9l-1 32h-15v-64l15-2ZM1280 308c2.4 2.3-4.2 47.1 6 27 4.5-8.6 14.8-8.4 23-7-2.7 8.2-13.4 9.7-13 19 2.7 6.2 7.9 13 11 19 10.6 12.6-13.7 8.4-14 7-6.6-19.4-13.7-22.5-13 1h-15c3.4-10.1-10.8-75.6 15-66ZM1369 308v22c29.8-15.4 27.1 25.6 26 44h-15l-1-31c-17.5-14.1-9.2 25.3-11 31h-14v-64l15-2ZM576 142l1 34 12-14c24-1.8 15.5 3.6 3 16 2 5.1 15.5 25.3 15 30-16.8 1.1-15.8 2.2-20-8-6.6-18.3-12.6-4.5-11 8h-14v-64l14-2ZM477 233c-1.9 6.3 5.5 19.9-7 12-35.6-11.5-22.9 51.8 8 28 6.8 27.8-35.7 24.3-44 4-9-28.7 11.6-59.3 43-44ZM1085 78c23-3.1 16.8 7.9 24 24 3.8-7.5 3.4-16.6 7-24h15c-.7 5.5-3 14-5 19-8.2 16.2-10 46.7-33 46-9.8 1.7-6.5-7-7-13 31.6.2.2-36.4-1-52ZM761 328c22.6-2.9 16.5 6.9 23 23 7-17.7-.3-25.4 23-23-3.6 12.9-9.6 29.5-14 42-4.3 11.6-11.5 24.9-26 23-7.7.9-4.4-8.6-5-13 32.5.1-1.4-35.8-1-52ZM1030 245c23-3.1 16.8 7.9 24 24 .8-4.3 5.3-16.8 5-21 2.8-5.9 11.5-2.2 17-3l-5 18c-7.4 17-14.4 46-25 46-12 .8-17.1 1.8-15-12 33.5.2-.9-35.4-1-52ZM1135 313c21.7-2.7 18.6 5 27 21 7.9-15.2 6.4-24 27-21-5.1 23.1-23.9 33-19 61-3.9-1.3-19.2 3.8-16-5 3.9-22-13.2-36.6-19-56Z"/>
    <path d="M1219 332c20.6 22-5.7 57.4-32 38-19-22.5 5.9-55.6 32-38Zm-20 10c-5.1 6.6-2.8 14 1 20 16.5 4.8 13-29.9-1-20ZM515 246c29.1 16.5 1.7 62-26 42-19.5-19-.9-53.3 26-42Zm-16 13c-4.8 7.3-3.6 22.9 8 20 8.5-6.2 3.8-29-8-20ZM1210 246c25.4 14.5 8.2 56.1-21 45-26.2-12.9-8.4-58.1 21-45Zm-16 12c-4.2 8.8-2.4 28.8 11 19 4.8-7.3.8-24.8-11-19ZM1110 247c27.6 16.1-.7 62.8-27 41-19.9-20.1.6-54.1 27-41Zm-17 12c-3.8 6.1-3.5 14.1 1 20 17.4 6.8 14.3-31-1-20ZM513 164c25.7 21.7-7.5 62.1-32 37-15.3-22.3 7.5-51.5 32-37Zm-19 12c-5.3 7.2-2.9 21.3 8 20 8.1-5.8 4.6-31-8-20ZM657 330c27.7 22.9-7.1 58.9-29 40-18.2-19.8 3.5-56.2 29-40Zm-17 10c-5.2 7.8-5.9 24 7 22 8.4-6.3 5.5-24.7-7-22Z"/>
    <path d="M431 147c21.7-2.7 18.6 5 27 21 9.5-17.3 5.2-23.1 28-21-8.5 18.6-23.2 36.4-20 58 .9 5-9.7 2.4-12 3-8.1 1-1.7-16.3-5-20-2.8-14.3-14.6-26.6-18-41ZM922 63c8.7 3.7 62.8-10.7 51 14l-17 1v46h-16V77c-15-1-19.9 5.5-18-14ZM689 245c-.9 6.9 18.7-10.2 25 9-1.1 15.2 10.7 44.9-14 36-2.5-11.9 7.9-35.6-11-31-.5 10.6 1.3 21.6-1 32-2.9 0-11.4.3-14-1 3.2-16-10.6-48.1 15-45ZM1140 161l2 4c24.8-16.5 28.6 16.2 26 34 1.1 12.2-5.4 8.6-14 9-.7-10.9.8-22.6-3-33l-8 1c-.6 10.6 0 21.6-2 32-10.7 0-15.8 2.3-14-11 0-10.7 8.6-22.3 0-33l13-3ZM787 164c8.9 5 8.2 16.5 8 25-1.6 1.7-38.3-3-22 6 9.3 3.8 23.1-9.9 20 6-38.8 39.4-62.3-56.9-6-37Zm-17 10c-6.4 9.2 7.1 3.5 11 5-.7-6.3-5.8-8.6-11-5ZM741 245c15.6-1.8 22 12 20 27l-26 1c3.8 12 16.4 4.7 24 2 6 21-25.5 23-35 9-11.2-14.8-3.3-40.8 17-39Zm-5 13c-6.6 7.6 8.2 2.6 11 4-2.3-7.2-4.9-5.8-11-4ZM1032 331c6.7 5.6 6.2 16.2 6 24l-26 1c5.3 10 15.9 4.2 24 2 4.6 17.6-13.4 19-27 15-29.6-12.4-5.4-61.8 23-42Zm-18 8c-7.8 11.1 4.9 4.2 10 6-1-6.9-4.2-6.3-10-6ZM542 81c17.5 27.5 2 24.6-20 25 2.8 11 16.3 2.6 24 3 5.1 18-17 18.1-29 13-26.3-15.9-1.4-60.4 25-41Zm-19 9c-7.3 7 8.3 4.6 11 5-.7-6.3-5.8-8.6-11-5ZM1491 330c7.6 5.4 7.5 16.9 7 25l-25 1c3.6 10.5 15.9 3.1 23 2 9.9 19.7-24.7 20.6-34 10-14.9-19.6 4.6-52.7 29-38Zm-18 10-1 5c5.9 0 20.8 1.6 8-7q-4 0-7 2ZM506 328c.6 10.6 0 21.6 2 32l9-1 1-29 14-2v46c-2.3-.9-16.1 2.4-15-3-4.1 4.6-10.6 3.9-16 3-16.7-6.9-8-29.8-10-44 3.8-1.5 10.8-2.5 15-2ZM1039 163c13 5.9 9.7 21.5 10 33-.9 5.2 1.4 14.1-7 13-4.4 1.5-6.8-4.4-10-2-31.5 9.1-26.6-30.5 2-28-.3-8.7-12.6-2.4-18-1h-3c-4.4-16.4 12.5-19.7 26-15Zm-14 29c.3 6.3 3.8 6.9 10 4 2.1-8.3-5.1-8.8-10-4ZM1021 247c13.6 9.9 6.3 29.7 8 44h-10c-1.7-.3-6.6-1.6-8 0-30.4 7.5-23.8-31.5 3-29-5.1-9.9-13.9 1.5-21 0-5.2-18.3 14.6-20 28-15Zm-15 27c-3.3 8.9 3.5 6.6 9 5 1.3-9.5-2.5-6.2-9-5ZM1036 81c11.1 10.8 4.3 29.1 6 43h-14c.6-3.9-1.5-.4-3 0-9.3 4.3-23.8-3.7-21-15-1.5-14.2 29.2-8.3 21-18-7.6-2-11.9 3.1-19 4-5-19 16.6-22.6 30-14Zm-17 26c-3.3 8.9 3.5 6.6 9 5 1.6-7.5-3.2-8.8-9-5ZM1259 227c.3 19.1 1.3 9.2-13 12-4.7 8.8 2.4 5.7 8 7-.4 10.2 3.3 14.6-10 13-.5 10.6 1.3 21.6-1 32-9.3-.2-16.1 2.4-14-10-1.9-7.3 5.2-24.4-6-22l1-13c11.6-2 1.9-30.2 35-19ZM1346 330c1.4 21.1-2.2 8.9-19 10 41.4 16.3 13.1 45.6-15 31v-13c4.5.5 22.1 8.5 20 1-37.8-7.3-14.8-43.6 14-29Z"/>
    <path d="M587 80c-1.3 1.5 3 18.1-3 13-3.8-1.9-16.5-6.4-16 0 45.5 6.5 6.8 51.5-15 25v-10c4.8 1.7 19.4 8.8 20 1-36.5-7.2-15.6-43.6 14-29ZM643 164c1.2 20.9-1.3 8.9-19 10v2c19.6 5.5 21.3 8.9 20 24-8.9 12.7-41.1 13-35-8 4.5.5 22.1 8.5 20 1-38.1-7.9-16.1-43.8 14-29ZM1077 330c1.5 20.9-2.5 9.1-18 10-1.9 2.3.2 2.3 2 3 26.9 4.5 20.6 34.4-1 31-12.8.8-19.5-2.2-17-16 4.5.5 22.1 8.5 20 1-37.9-7.6-15.7-43.8 14-29ZM1103 316c-.1 12-2.1 12.8 11 12-.4 10.2 3.3 14.6-10 13v20c14.2-2.6 10.6.5 10 12-44.2 11.1-12.6-35.4-34-32 1.3-6-.8-15.3 8-13-2.3-13.7 5.3-10.1 15-12ZM559 316c-3 25.5 13.1-.6 11 22-8.6 11.7-13-12.3-10 23 13.6-2.9 9.5 1.8 10 12-43.4 10.8-15.1-35.6-34-32-.5-4 .9-9.3 2-13h6c-2.3-13.7 5.3-10 15-12ZM747 316c-.1 12-2.1 12.8 11 12v13c-15.5-2.5-8.6 7.1-10 17-.7 5.2 8.6 1.6 11 2 3.5 16.5-8 16.3-21 13-8.1-6.7-5.7-21.7-6-31l-8-1c1.5-5-.8-15.7 8-13-2.6-10.7 6.3-11.9 15-12ZM613 66c-.1 12-2.1 12.8 11 12 0 11.4 2.6 14.4-11 13l1 21c14-3.8 10.8-.7 11 11-46 12.4-11.1-36.8-35-32 1.7-6.3-1.1-15.3 9-13-2.1-13.2 4.2-10.2 14-12ZM1082 80v14c-15.9-9.3-22.3 1.6-18 17 6.7 1 12.2-1 19-3-.6 3.6 1.7 12.7-2 15-47.6 19.5-44.3-64.2 1-43ZM1440 328c3.1 8.8 18.8-13.8 16 14-3.7-.5-10.6.6-14 2l-1 30h-15v-44l14-2ZM735 161c2.8 11.6 20-15.4 17 15-3.7-.2-11.3.4-15 1v31c-9.8-1.5-17.2 3.1-15-11 0-10.7 8.6-22.3 0-33l13-3ZM991 161c2.2 8.1 7-1.4 13 0 6.2 0 3.5 11.6 4 15h-8c-14.1-1.4-3.3 22.7-8 32-10.7 0-15.7 2.3-14-11 0-10.7 8.6-22.3 0-33l13-3ZM540 161c2.2 8.1 7-1.4 13 0 6.2 0 3.5 11.6 4 15-23.5-5.4-11.7 19.7-16 32-10.7 0-15.7 2.3-14-11 0-10.7 8.6-22.3 0-33l13-3ZM985 78c.8 3.6.6 4.8 4 2 11.9-7.7 13 3.1 12 13-2-1.9-11.7.7-14 1l-1 30h-15c2.7-9.8-8.9-53.2 14-46ZM686 328c.9 6.3 5.4-1.7 10 0 8.5-3.1 3.9 11.1 5 15-22.3-6.7-11.7 19.4-14 31h-15v-44l14-2ZM1140 245c3.6 8.9 17.6-14.3 15 15-3.8-.2-11.3.2-15 1v30h-14v-44l14-2ZM1245 328v4l2-2c14-7.3 13.8 1.9 13 13-21.9-6.7-12.4 19.4-15 31h-14c2.9-9.4-9.4-55 14-46ZM1119 161c-.7 15.5 1.6 31.8-1 47h-14v-44l15-3ZM1418 328v46h-15v-44l15-2ZM714 161c-.7 15.5 1.6 31.8-1 47h-13c-2.2-14.4-.6-29.5-1-44 4.5-.6 10.6-2.2 15-3ZM721 328v46h-15c2.4-11.9-8.9-52 15-46ZM666 245c-.7 15.1 1.6 31.2-1 46h-14v-44l15-2ZM1418 313c5.9 10.7-10.5 18-16 8-2.4-9.7 9.1-16.2 16-8Z"/>
    <path d="M720 311c8 10.7-5.9 18.7-14 11-3.4-9.2 5.5-15.8 14-11ZM662 227c7.3 2.9 6.9 15.5-2 15-14 4.2-11.6-20.9 2-15ZM1116 144c9.9 6.1-.6 19-10 14-8.9-7.3 1-17.9 10-14ZM706 144c10-1.5 11.8 12.6 3 15-12 3-15.5-14.7-3-15Z"/>
</g>
</svg>
